<?xml version="1.0" standalone="no"?>
<!DOCTYPE svg PUBLIC "-//W3C//DTD SVG 20010904//EN"
 "http://www.w3.org/TR/2001/REC-SVG-20010904/DTD/svg10.dtd">
<svg version="1.0" xmlns="http://www.w3.org/2000/svg"
 width="900.000000pt" height="1200.000000pt" viewBox="0 0 900.000000 1200.000000"
 preserveAspectRatio="xMidYMid meet">

<g transform="translate(0.000000,1200.000000) scale(0.100000,-0.100000)"
fill="#000000" stroke="none">
<path d="M3855 9509 c-149 -22 -277 -113 -341 -246 -15 -29 -24 -56 -20 -60 3
-3 -2 -11 -11 -18 -25 -19 -30 -155 -8 -231 33 -113 82 -185 176 -255 60 -46
79 -49 79 -14 0 18 -11 32 -37 49 -131 84 -203 248 -174 397 10 51 10 63 -1
70 -9 6 -7 9 8 9 13 0 26 12 36 33 30 62 116 145 186 179 244 116 543 -41 571
-301 3 -36 3 -86 -1 -110 -4 -24 -5 -48 -2 -52 7 -12 61 -11 69 1 3 6 -2 10
-11 10 -14 0 -15 3 -6 12 20 20 15 150 -9 220 -69 207 -286 339 -504 307z"/>
<path d="M4885 9506 c-142 -45 -251 -154 -291 -291 -20 -70 -21 -209 -2 -233
11 -13 10 -15 -4 -10 -10 4 -19 1 -22 -8 -4 -11 5 -14 40 -14 l46 0 -8 48 c-5
26 -8 79 -8 118 4 158 117 297 276 340 185 49 373 -44 468 -232 33 -64 35 -74
35 -164 0 -82 -4 -103 -27 -152 -35 -76 -72 -123 -125 -159 -43 -30 -50 -43
-34 -68 7 -11 17 -8 53 17 120 82 188 212 188 358 0 79 -9 124 -25 124 -8 0
-11 8 -8 19 12 48 -106 206 -193 257 -103 61 -258 82 -359 50z"/>
<path d="M8129 9173 c-13 -15 -11 -16 11 -10 14 4 33 7 43 7 10 0 15 5 12 10
-10 16 -51 12 -66 -7z"/>
<path d="M4110 9160 c-32 -13 -60 -58 -60 -98 0 -42 42 -90 86 -98 99 -18 163
92 97 166 -31 34 -81 46 -123 30z"/>
<path d="M4728 9143 c-33 -36 -40 -69 -24 -107 20 -48 50 -69 98 -69 34 0 47
6 70 32 62 69 17 171 -74 171 -35 0 -49 -6 -70 -27z"/>
<path d="M8143 9149 c-45 -11 -57 -27 -44 -62 20 -52 80 -74 129 -48 26 14 38
55 26 90 -11 30 -42 35 -111 20z m65 -21 c19 -19 14 -46 -9 -59 -29 -15 -65
18 -54 50 7 23 43 29 63 9z"/>
<path d="M7955 9138 c-11 -6 -35 -12 -54 -12 -24 -1 -39 -8 -53 -27 -19 -26
-20 -29 -4 -83 13 -44 21 -56 34 -54 13 3 16 12 13 38 -8 77 -7 85 14 85 15 0
24 -12 36 -50 9 -29 22 -51 31 -53 25 -5 28 11 14 59 -15 51 -12 69 14 69 14
0 23 -14 36 -55 16 -51 35 -68 49 -45 10 16 -15 93 -38 118 -22 24 -60 28 -92
10z"/>
<path d="M7671 9050 c-23 -20 -23 -20 -2 -20 38 0 111 22 105 31 -10 17 -78 9
-103 -11z"/>
<path d="M7495 9025 c-29 -29 -30 -36 -9 -99 12 -34 21 -46 33 -44 11 3 15 12
12 33 -9 75 -7 90 14 90 15 0 24 -12 36 -50 18 -51 26 -60 46 -47 9 6 9 20 -3
60 -24 81 -81 106 -129 57z"/>
<path d="M7740 8975 c0 -9 6 -12 15 -9 8 4 12 10 9 15 -8 14 -24 10 -24 -6z"/>
<path d="M7706 8964 c-4 -10 -1 -14 6 -12 15 5 23 28 10 28 -5 0 -13 -7 -16
-16z"/>
<path d="M8157 8963 c-4 -3 -7 -17 -7 -30 0 -12 -4 -23 -10 -23 -22 0 -9 -41
15 -50 14 -5 28 -17 31 -25 8 -19 44 -20 44 0 0 8 -9 24 -21 36 -14 14 -19 28
-15 44 10 40 -14 71 -37 48z"/>
<path d="M8057 8942 c-7 -10 33 -152 42 -152 3 0 12 4 19 9 19 12 -17 145 -40
149 -9 2 -19 -1 -21 -6z"/>
<path d="M7950 8923 c-88 -28 -104 -110 -29 -148 52 -27 119 2 119 52 0 30
-32 31 -45 1 -20 -46 -80 -26 -73 24 2 17 12 25 41 32 26 7 37 15 37 28 0 18
-18 22 -50 11z"/>
<path d="M4694 8906 c21 -17 83 -32 92 -23 4 3 -13 11 -36 17 -23 6 -49 13
-58 16 -14 5 -13 3 2 -10z"/>
<path d="M4022 8875 c0 -16 2 -22 5 -12 2 9 2 23 0 30 -3 6 -5 -1 -5 -18z"/>
<path d="M7788 8884 c-3 -3 1 -26 8 -52 12 -40 12 -48 0 -61 -21 -20 -40 -2
-56 54 -10 34 -17 45 -32 45 -18 0 -19 -5 -13 -36 10 -58 22 -82 49 -99 34
-22 83 -12 98 21 16 34 -8 134 -32 134 -9 0 -19 -2 -22 -6z"/>
<path d="M4921 8864 c0 -11 3 -14 6 -6 3 7 2 16 -1 19 -3 4 -6 -2 -5 -13z"/>
<path d="M7332 8855 c0 -16 2 -22 5 -12 2 9 2 23 0 30 -3 6 -5 -1 -5 -18z"/>
<path d="M7538 8833 c-10 -2 -18 -7 -18 -11 0 -14 34 -128 40 -135 12 -13 76
3 99 24 13 13 21 32 21 54 0 58 -64 89 -142 68z m92 -48 c16 -19 3 -55 -21
-55 -10 0 -19 1 -19 3 0 1 -4 17 -9 35 -9 29 -8 32 13 32 13 0 29 -7 36 -15z"/>
<path d="M7322 8795 c0 -16 2 -22 5 -12 2 9 2 23 0 30 -3 6 -5 -1 -5 -18z"/>
<path d="M8304 8785 c21 -16 32 -13 21 4 -3 6 -14 11 -23 11 -15 -1 -15 -2 2
-15z"/>
<path d="M8167 8730 c9 -16 21 -30 26 -30 5 0 -1 14 -13 30 -12 17 -24 30 -26
30 -3 0 3 -13 13 -30z"/>
<path d="M8056 8725 c-9 -26 -7 -32 5 -12 6 10 9 21 6 23 -2 3 -7 -2 -11 -11z"/>
<path d="M7321 8690 c0 -19 6 -64 15 -100 8 -36 17 -82 21 -102 3 -21 10 -38
15 -38 6 0 8 -11 6 -25 -3 -14 -2 -25 2 -25 5 0 11 -44 14 -97 3 -54 7 -109 9
-123 12 -71 20 -111 37 -170 10 -36 25 -105 35 -155 29 -154 32 -166 44 -178
6 -6 11 -21 11 -33 0 -13 6 -29 14 -37 9 -8 11 -19 6 -27 -9 -15 -3 -40 14
-55 14 -13 40 -102 39 -137 0 -17 5 -28 13 -28 8 0 19 -20 26 -45 7 -25 18
-45 25 -45 7 0 13 -11 13 -24 0 -13 7 -29 15 -36 8 -7 15 -19 15 -28 0 -26 50
-123 60 -117 6 4 10 2 10 -4 0 -5 -4 -11 -10 -13 -12 -4 21 -77 35 -78 6 0 11
-14 12 -31 1 -17 8 -37 14 -45 6 -8 9 -21 5 -29 -3 -9 -2 -13 4 -10 6 4 13 -7
16 -24 4 -17 10 -31 15 -31 5 0 9 -6 9 -13 0 -18 24 -67 33 -67 4 0 7 -9 7
-21 0 -33 34 -127 38 -105 2 10 -1 28 -6 40 -6 11 -18 55 -27 96 -10 41 -19
82 -22 90 -10 27 -12 140 -3 140 5 0 18 20 29 45 11 25 22 45 25 45 3 0 3 -17
0 -37 l-4 -38 10 33 c8 24 7 46 -5 90 -9 31 -25 89 -35 127 -40 151 -53 147
-19 -6 31 -143 33 -161 16 -202 -18 -41 -31 -46 -47 -18 -11 21 -5 47 16 71
10 12 10 27 0 75 -7 33 -12 62 -12 65 0 3 -5 14 -12 25 -11 19 -11 19 -12 1 0
-15 -3 -16 -15 -6 -13 11 -15 8 -15 -17 0 -16 3 -33 7 -36 3 -4 7 -32 8 -62 2
-66 -10 -59 -30 16 -16 59 -10 162 7 137 7 -9 8 -8 4 5 -3 10 -6 23 -6 28 0 5
-7 9 -15 9 -10 0 -15 -10 -15 -32 0 -17 -2 -29 -4 -27 -8 8 -34 202 -39 289
-5 82 -5 84 10 50 8 -19 24 -40 34 -48 11 -7 33 -39 50 -70 16 -31 27 -48 24
-38 -3 10 -24 81 -48 157 -23 77 -45 139 -49 139 -4 0 -11 -15 -17 -32 -5 -18
-18 -58 -29 -88 -16 -44 -22 -51 -27 -35 -4 11 -11 30 -15 42 -5 12 -6 37 -3
56 3 21 -1 45 -10 63 -8 16 -18 45 -22 64 -11 59 -37 120 -50 120 -7 0 -18 15
-24 33 l-11 32 20 -25 20 -25 -1 30 c0 17 -6 68 -13 115 -7 47 -12 87 -10 89
2 2 15 5 28 6 21 3 27 -3 37 -32 6 -19 13 -32 16 -29 8 8 -19 80 -33 89 -8 4
-14 20 -15 35 0 15 -4 36 -9 47 -8 18 -9 17 -9 -6 -1 -15 -8 -32 -16 -39 -8
-7 -15 -27 -15 -44 0 -24 -3 -27 -10 -16 -15 24 -12 117 4 123 12 5 12 16 1
72 -6 36 -17 71 -23 77 -7 7 -8 0 -2 -26 4 -20 4 -39 -1 -42 -12 -7 -29 39
-29 77 0 50 -18 32 -31 -31 -6 -33 -15 -63 -20 -65 -7 -5 -27 53 -45 130 -4
17 -10 35 -14 40 -6 10 -30 84 -37 115 -1 8 -7 29 -12 45 l-9 30 -1 -35z m204
-358 c-8 -9 -25 20 -18 31 3 5 10 2 15 -7 6 -10 7 -20 3 -24z m-19 -38 c4 -14
1 -36 -6 -49 -7 -12 -9 -33 -6 -46 5 -20 5 -21 -3 -4 -17 40 -31 92 -31 119 0
24 2 25 20 16 11 -6 23 -22 26 -36z m53 -236 c1 -16 -3 -28 -9 -28 -5 0 -10
14 -10 31 0 17 -7 37 -15 45 -8 9 -15 21 -14 27 0 9 2 8 6 0 8 -21 23 -15 24
10 2 27 18 -47 18 -85z m315 -1113 c4 -27 3 -33 -2 -20 -16 35 -24 81 -13 70
5 -5 12 -28 15 -50z"/>
<path d="M7865 8618 c-48 -42 -74 -95 -82 -168 -4 -44 -10 -60 -19 -56 -15 6
-81 -11 -88 -23 -3 -4 0 -24 6 -45 12 -37 17 -39 60 -21 14 6 16 -5 20 -92 4
-120 23 -165 91 -207 66 -40 135 -41 177 -1 23 22 30 25 30 12 0 -8 5 -19 11
-22 6 -4 9 0 7 11 -3 16 3 19 37 17 66 -4 68 -4 115 5 25 5 35 10 23 11 -13 0
-23 6 -23 12 0 6 22 9 58 7 31 -1 62 1 68 5 8 4 10 25 6 59 -3 29 -6 63 -6 76
-1 15 -7 22 -21 22 -12 0 -25 11 -32 25 -9 20 -8 25 3 25 19 0 56 38 49 51 -4
5 -1 18 6 27 11 14 11 15 -1 5 -8 -7 -19 -9 -29 -4 -9 5 -40 12 -69 16 -63 8
-86 27 -77 64 8 34 50 71 81 71 57 0 99 -41 107 -105 3 -26 4 -25 6 8 2 65
-70 119 -135 103 -37 -10 -74 -54 -74 -87 0 -24 -4 -29 -23 -29 -17 0 -26 9
-35 34 -16 44 -42 66 -86 73 -50 8 -95 -13 -112 -53 -17 -40 -17 -47 -4 -39 6
3 10 15 10 25 0 25 47 60 81 60 44 0 77 -20 95 -58 16 -34 16 -36 -2 -49 -10
-7 -37 -18 -59 -23 -22 -6 -48 -15 -57 -20 -25 -14 -26 -14 -48 23 -11 17 -20
27 -20 20 0 -6 11 -25 25 -41 14 -17 25 -34 25 -39 0 -15 35 -43 54 -43 12 0
16 -7 14 -22 -3 -20 -9 -23 -48 -22 -25 1 -37 -1 -27 -3 9 -2 17 -8 17 -12 0
-8 -121 -33 -128 -26 -2 2 -1 22 3 45 7 40 7 41 31 26 40 -27 41 -18 2 10
-109 78 -109 274 0 364 20 17 33 30 30 30 -4 0 -23 -14 -43 -32z m323 -254
c20 -8 58 -17 84 -19 50 -3 68 -10 68 -26 0 -6 -4 -7 -10 -4 -6 3 -7 -1 -4 -9
5 -13 -7 -14 -94 -9 -64 4 -123 1 -167 -7 -64 -12 -69 -12 -82 6 -12 16 -11
20 4 31 9 7 26 13 37 13 12 1 44 9 71 20 28 10 51 19 53 19 1 1 19 -6 40 -15z
m-108 -115 c0 -23 -28 -26 -37 -3 -6 16 15 37 29 28 4 -3 8 -14 8 -25z m50 10
c0 -25 -33 -22 -38 4 -2 12 3 17 17 17 15 0 21 -6 21 -21z m50 7 c0 -15 -24
-28 -34 -19 -13 14 -5 33 14 33 11 0 20 -6 20 -14z m48 2 c-3 -7 -11 -13 -18
-13 -7 0 -15 6 -17 13 -3 7 4 12 17 12 13 0 20 -5 18 -12z m42 2 c0 -5 -7 -10
-15 -10 -8 0 -15 5 -15 10 0 6 7 10 15 10 8 0 15 -4 15 -10z m20 -35 c0 -15
-4 -16 -153 -39 -53 -8 -90 -10 -93 -4 -10 16 1 19 108 34 57 8 108 16 113 18
19 8 25 6 25 -9z m55 -56 c4 -17 4 -33 0 -37 -4 -4 -83 -9 -176 -10 l-169 -4
0 38 c0 37 0 37 20 19 19 -17 28 -18 123 -6 56 7 118 16 137 21 55 13 58 12
65 -21z m-352 -56 c3 -29 2 -55 -3 -58 -18 -11 -95 32 -113 64 -20 35 -21 34
53 49 25 5 48 6 51 3 4 -3 9 -29 12 -58z m-53 -55 c53 -27 54 -27 22 -28 -45
0 -88 24 -107 60 -24 46 -18 68 8 29 13 -20 44 -45 77 -61z m153 -25 c-7 -2
-19 -2 -25 0 -7 3 -2 5 12 5 14 0 19 -2 13 -5z"/>
<path d="M7541 8487 c-2 -17 22 -102 31 -112 6 -6 7 1 2 20 -9 39 -32 102 -33
92z"/>
<path d="M8025 8415 c17 -14 18 -17 5 -25 -17 -11 -9 -13 14 -4 23 9 20 19
-11 33 -26 11 -27 10 -8 -4z"/>
<path d="M8237 8419 c-19 -11 -14 -29 9 -29 9 0 12 5 8 11 -3 6 0 15 7 20 20
12 -2 11 -24 -2z"/>
<path d="M8462 8293 c-5 -10 -7 -44 -5 -75 4 -51 2 -60 -20 -82 -14 -14 -22
-27 -20 -30 3 -3 0 -13 -7 -22 -12 -14 -10 -15 26 -9 50 10 58 17 73 65 8 27
8 45 1 57 -18 32 -33 78 -31 96 1 9 0 17 -3 17 -3 0 -9 -8 -14 -17z"/>
<path d="M8410 8250 c-12 -8 -11 -10 8 -10 12 0 22 5 22 10 0 13 -11 13 -30 0z"/>
<path d="M7650 8091 c0 -6 4 -13 10 -16 6 -3 7 1 4 9 -7 18 -14 21 -14 7z"/>
<path d="M7625 8050 c-3 -5 -1 -10 4 -10 6 0 11 5 11 10 0 6 -2 10 -4 10 -3 0
-8 -4 -11 -10z"/>
<path d="M3015 8029 c-59 -18 -95 -65 -95 -122 0 -58 25 -96 77 -119 118 -52
226 46 183 168 -19 55 -104 92 -165 73z m87 -79 c24 -25 29 -36 23 -58 -14
-56 -58 -77 -106 -51 -63 33 -34 135 39 138 8 1 27 -13 44 -29z"/>
<path d="M3585 8022 c-52 -24 -75 -60 -75 -114 0 -123 147 -179 234 -89 97
102 -29 263 -159 203z m99 -63 c53 -42 26 -129 -42 -129 -31 0 -72 43 -72 75
0 30 41 75 68 75 11 0 31 -9 46 -21z"/>
<path d="M2664 8017 c-2 -7 -3 -62 -2 -123 l3 -109 27 -3 c27 -3 27 -3 30 69
l3 73 55 -72 c45 -60 59 -72 80 -70 25 3 25 5 28 103 4 125 -1 147 -31 143
-20 -3 -22 -10 -25 -65 -2 -35 -6 -63 -10 -63 -4 1 -29 30 -57 65 -36 47 -56
65 -73 65 -12 0 -25 -6 -28 -13z"/>
<path d="M3224 8017 c-2 -7 -3 -62 -2 -123 3 -109 3 -109 28 -109 23 0 25 4
30 60 l5 60 23 -32 c30 -42 55 -42 80 -1 24 37 30 30 34 -42 3 -41 5 -45 28
-45 25 0 25 1 28 100 4 124 -1 145 -32 145 -17 0 -33 -15 -61 -57 l-37 -56
-35 56 c-27 44 -40 57 -59 57 -14 0 -27 -6 -30 -13z"/>
<path d="M4625 7976 c-19 -13 -20 -29 -23 -233 -3 -210 -2 -220 18 -246 l21
-27 813 0 c775 0 814 1 829 18 15 16 17 48 17 238 -1 180 -3 223 -16 239 -15
20 -28 20 -827 23 -693 2 -816 0 -832 -12z"/>
<path d="M7692 7960 c0 -14 2 -19 5 -12 2 6 2 18 0 25 -3 6 -5 1 -5 -13z"/>
<path d="M7640 7949 c0 -5 5 -7 10 -4 6 3 10 8 10 11 0 2 -4 4 -10 4 -5 0 -10
-5 -10 -11z"/>
<path d="M7616 7941 c-4 -7 -5 -15 -2 -18 9 -9 19 4 14 18 -4 11 -6 11 -12 0z"/>
<path d="M7660 7929 c0 -5 -5 -7 -10 -4 -19 12 -22 -26 -5 -65 9 -21 14 -43
11 -48 -3 -6 -1 -23 6 -39 11 -27 12 -26 19 32 8 65 2 135 -12 135 -5 0 -9 -5
-9 -11z"/>
<path d="M8140 7861 c-32 -4 -40 -17 -40 -63 0 -29 -3 -36 -15 -32 -10 4 -15
0 -15 -11 0 -9 -5 -15 -12 -13 -18 6 -22 28 -4 28 11 0 15 11 14 40 0 22 -1
40 -3 40 -24 0 -154 -57 -172 -76 -22 -22 -36 -17 -29 11 5 20 3 23 -10 18
-11 -4 -14 -12 -9 -27 4 -11 9 -31 12 -43 3 -13 12 -23 20 -23 8 0 11 -5 8
-10 -7 -11 3 -91 14 -108 5 -8 17 -9 38 -3 17 5 35 5 39 1 5 -5 24 -10 43 -12
19 -2 37 -9 39 -17 4 -11 -3 -12 -32 -7 -20 4 -52 4 -71 0 -28 -5 -35 -11 -35
-29 0 -23 22 -35 67 -35 17 0 24 -8 29 -35 5 -30 8 -33 21 -20 18 18 114 20
131 3 26 -26 11 -33 -68 -32 -73 2 -80 0 -80 -17 0 -27 43 -41 115 -37 53 3
62 6 77 31 10 15 32 36 50 46 18 11 38 23 43 28 6 4 20 7 31 5 15 -2 29 6 42
26 33 45 36 74 12 100 -24 25 -32 28 -24 8 3 -7 -6 -30 -20 -51 -14 -21 -26
-44 -26 -51 0 -8 -7 -14 -15 -14 -30 0 -9 78 30 110 14 12 14 14 -4 26 -16 12
-18 19 -9 52 11 46 -2 87 -31 95 -12 3 -19 1 -16 -4 3 -4 -2 -31 -11 -58 -9
-28 -13 -58 -10 -67 4 -11 1 -14 -12 -12 -27 5 -28 70 -1 117 12 21 19 45 16
52 -4 10 -6 9 -6 -3 -1 -19 -10 -20 -51 -9 -20 5 -26 15 -30 46 -4 36 -8 40
-30 36z m-176 -147 c32 -12 7 -74 -29 -74 -20 0 -47 44 -39 64 6 16 39 21 68
10z m90 -56 c-20 -10 -45 -25 -54 -33 -21 -19 -30 -19 -30 0 0 21 46 63 73 67
12 2 28 0 35 -6 10 -7 4 -14 -24 -28z m103 -33 c8 -23 -1 -28 -37 -20 -25 6
-29 9 -19 21 15 19 48 18 56 -1z m33 -45 c0 -5 -4 -10 -10 -10 -5 0 -10 5 -10
10 0 6 5 10 10 10 6 0 10 -4 10 -10z"/>
<path d="M3791 7827 c-18 -23 -2 -49 28 -45 20 2 26 8 26 28 0 29 -34 40 -54
17z"/>
<path d="M8331 7783 c0 -4 4 -17 9 -28 8 -19 9 -19 9 2 1 12 -3 25 -9 28 -5 3
-10 3 -9 -2z"/>
<path d="M2672 7708 c-16 -16 -16 -220 0 -236 18 -18 118 -15 158 6 39 19 70
71 70 117 0 43 -35 94 -75 111 -42 17 -136 19 -153 2z m140 -65 c11 -10 18
-30 18 -54 0 -45 -27 -69 -78 -69 l-33 0 2 70 2 70 35 0 c20 0 44 -7 54 -17z"/>
<path d="M2932 7708 c-17 -17 -15 -141 2 -182 18 -44 52 -66 99 -66 87 0 117
42 117 164 0 79 -8 100 -36 94 -16 -3 -20 -15 -24 -84 -5 -87 -18 -114 -54
-114 -36 0 -46 20 -46 93 0 93 -23 130 -58 95z"/>
<path d="M3229 7697 c-23 -15 -38 -37 -48 -65 -12 -38 -11 -49 4 -87 23 -61
69 -89 136 -83 57 6 94 33 83 62 -5 13 -13 16 -33 11 -73 -18 -82 -18 -107 6
-47 44 -21 119 42 119 20 0 45 -5 56 -11 24 -13 52 8 43 33 -16 42 -122 51
-176 15z"/>
<path d="M3446 7711 c-11 -18 -8 -233 4 -245 18 -18 45 7 48 45 6 55 23 54 73
-3 32 -36 51 -50 62 -45 27 10 20 38 -22 92 l-39 50 39 41 c27 27 38 46 33 57
-10 28 -37 19 -89 -28 l-50 -45 -3 32 c-2 18 -8 39 -14 45 -12 15 -34 17 -42
4z"/>
<path d="M8418 7643 c7 -3 16 -2 19 1 4 3 -2 6 -13 5 -11 0 -14 -3 -6 -6z"/>
<path d="M8292 7401 c-47 -30 -76 -66 -67 -81 15 -24 65 -10 100 28 39 42 39
43 23 64 -12 14 -17 13 -56 -11z"/>
<path d="M8490 7375 c-14 -8 -33 -14 -42 -15 -23 0 -48 -28 -42 -45 4 -8 17
-15 30 -15 13 0 24 -6 24 -12 0 -9 3 -9 9 1 13 20 61 24 61 5 0 -8 -6 -14 -12
-13 -44 5 -83 -35 -46 -47 16 -5 170 30 186 42 2 1 -1 11 -7 22 -9 16 -7 21 9
25 25 6 27 44 3 51 -53 14 -149 15 -173 1z m174 -15 c19 -18 -8 -28 -91 -34
-49 -3 -103 -9 -121 -12 -29 -6 -33 -4 -30 11 5 28 93 53 168 47 36 -2 69 -8
74 -12z m-64 -56 c0 -8 7 -14 16 -14 14 0 14 3 4 15 -7 8 -8 15 -4 15 5 0 14
-8 21 -19 11 -17 5 -20 -66 -40 -86 -23 -101 -25 -101 -13 0 5 25 14 55 21 30
7 58 17 61 23 5 7 -2 9 -20 4 -18 -4 -26 -3 -26 7 0 9 12 14 30 15 20 0 30 -4
30 -14z"/>
<path d="M7825 7348 c-10 -24 -2 -38 12 -23 6 7 8 18 3 26 -7 11 -10 10 -15
-3z"/>
<path d="M8715 7300 c-3 -5 -1 -10 4 -10 6 0 11 5 11 10 0 6 -2 10 -4 10 -3 0
-8 -4 -11 -10z"/>
<path d="M2574 7285 c-62 -32 -62 -33 -66 -442 -3 -364 -3 -372 18 -400 11
-15 32 -34 45 -40 19 -10 420 -13 1847 -13 l1824 0 34 34 34 34 0 367 c0 402
-2 421 -59 449 -21 11 -359 15 -1836 20 -1629 6 -1813 5 -1841 -9z"/>
<path d="M8772 7280 c0 -14 2 -19 5 -12 2 6 2 18 0 25 -3 6 -5 1 -5 -13z"/>
<path d="M8400 7246 c0 -2 7 -6 15 -10 8 -3 15 -1 15 4 0 6 -7 10 -15 10 -8 0
-15 -2 -15 -4z"/>
<path d="M8085 7211 c-3 -5 -2 -12 3 -15 5 -3 9 1 9 9 0 17 -3 19 -12 6z"/>
<path d="M8605 7055 c-5 -2 -31 -6 -57 -10 -27 -3 -48 -10 -48 -15 0 -5 17 -4
38 2 57 16 151 13 209 -6 31 -10 74 -36 105 -64 31 -28 44 -36 33 -20 -25 33
-99 83 -145 96 -41 13 -121 23 -135 17z"/>
<path d="M8371 6989 c0 -14 -12 -36 -26 -49 -14 -13 -25 -27 -25 -32 0 -4 14
5 31 21 23 23 29 36 26 58 -4 27 -4 27 -6 2z"/>
<path d="M8649 6851 c-31 -31 -39 -83 -19 -121 8 -15 6 -21 -11 -30 -18 -10
-25 -8 -48 14 -61 58 -142 52 -176 -14 -29 -57 -4 -117 65 -156 50 -29 53 -29
46 -6 -5 13 6 31 36 60 24 23 53 53 65 67 16 18 32 25 58 25 20 0 52 7 72 15
47 20 89 19 97 -1 9 -24 -8 -39 -72 -63 -69 -25 -162 -78 -162 -91 0 -13 17
-13 25 -1 8 14 87 56 142 77 26 9 56 24 66 32 19 17 23 47 7 57 -6 4 -8 15 -5
26 10 30 -13 86 -46 114 -44 36 -101 35 -140 -4z m127 0 c33 -20 64 -86 48
-100 -12 -10 -125 -41 -151 -41 -22 0 -43 37 -43 76 0 35 51 84 87 84 15 0 42
-9 59 -19z m-222 -136 c37 -34 33 -57 -19 -103 -25 -22 -45 -45 -45 -51 0 -21
-31 -11 -61 18 -39 39 -41 100 -4 136 33 34 92 34 129 0z"/>
<path d="M8696 6778 c-23 -32 -20 -38 17 -37 23 1 26 3 10 6 -26 5 -29 13 -11
31 6 6 9 14 6 17 -3 4 -13 -4 -22 -17z"/>
<path d="M8520 6670 c0 -24 29 -38 40 -20 12 19 1 40 -21 40 -12 0 -19 -7 -19
-20z"/>
<path d="M8025 6780 c3 -5 8 -10 11 -10 2 0 4 5 4 10 0 6 -5 10 -11 10 -5 0
-7 -4 -4 -10z"/>
<path d="M7992 6760 c0 -14 2 -19 5 -12 2 6 2 18 0 25 -3 6 -5 1 -5 -13z"/>
<path d="M8241 6718 c-1 -66 28 -155 65 -196 20 -22 18 -15 -11 39 -26 49 -38
86 -44 140 l-8 74 -2 -57z"/>
<path d="M8080 6579 c0 -5 5 -7 10 -4 6 3 10 8 10 11 0 2 -4 4 -10 4 -5 0 -10
-5 -10 -11z"/>
<path d="M8815 6560 c-10 -11 -14 -20 -8 -20 5 0 18 9 28 20 10 11 14 20 8 20
-5 0 -18 -9 -28 -20z"/>
<path d="M8035 6559 c-10 -15 3 -25 16 -12 7 7 7 13 1 17 -6 3 -14 1 -17 -5z"/>
<path d="M8089 6469 c-8 -49 -7 -79 2 -111 10 -39 11 -40 31 -21 11 10 22 17
24 16 7 -5 6 6 0 41 -5 26 -54 92 -57 75z"/>
<path d="M8020 6434 c0 -21 22 -97 30 -104 3 -3 21 -57 38 -120 35 -124 60
-182 80 -188 8 -2 12 7 12 26 0 18 6 32 16 36 8 3 12 10 9 16 -3 6 1 17 9 26
9 8 16 21 16 27 0 7 -4 6 -10 -3 -5 -8 -10 -10 -10 -4 0 5 5 15 11 21 7 7 7
21 1 44 l-10 34 -1 -35 c-1 -28 -4 -32 -12 -18 -8 14 -14 15 -35 6 -21 -10
-24 -17 -21 -45 7 -49 -7 -40 -21 13 -13 47 -10 59 11 59 17 0 54 68 39 73 -7
2 -12 10 -12 18 0 8 -4 14 -9 14 -13 0 -45 -53 -44 -73 1 -9 -3 -15 -8 -11 -6
3 -8 13 -5 21 3 8 -2 31 -13 51 -10 20 -24 58 -31 85 -12 46 -30 64 -30 31z"/>
<path d="M8181 6324 c0 -11 3 -14 6 -6 3 7 2 16 -1 19 -3 4 -6 -2 -5 -13z"/>
<path d="M8906 6198 c-2 -7 -10 -31 -18 -53 l-14 -40 -72 -3 c-69 -3 -72 -2
-84 24 -11 23 -16 25 -52 20 -52 -9 -59 -14 -53 -43 4 -19 1 -23 -12 -17 -9 4
-39 9 -66 12 -39 3 -56 -1 -74 -15 -20 -17 -22 -22 -12 -41 7 -12 9 -28 5 -35
-4 -6 -4 -9 1 -5 4 4 21 -4 37 -17 16 -14 34 -25 39 -25 19 0 8 -31 -21 -57
-30 -27 -39 -56 -19 -68 6 -4 8 -13 5 -21 -3 -8 -2 -13 2 -13 26 4 32 -4 32
-46 0 -46 12 -82 42 -126 9 -14 14 -29 10 -33 -4 -4 -1 -6 7 -4 25 6 22 -18
-4 -30 -31 -14 -31 -23 0 -52 13 -12 22 -27 19 -31 -3 -5 3 -6 12 -2 10 4 15
2 11 -3 -3 -6 16 -34 42 -64 l47 -53 75 16 c179 39 209 49 209 73 0 12 -7 24
-15 28 -23 9 -21 113 3 119 13 4 11 5 -5 6 -17 1 -23 -5 -23 -19 0 -30 -35
-25 -59 9 -12 16 -21 32 -21 35 0 3 27 3 60 -1 33 -3 60 -2 60 3 0 5 -30 10
-67 12 -37 2 -71 9 -75 15 -5 8 -10 8 -20 0 -17 -14 -107 -33 -125 -26 -17 6
-17 45 0 42 6 -1 23 2 37 8 82 33 100 37 133 26 30 -11 134 -28 112 -19 -5 3
-36 12 -67 21 -50 13 -58 19 -58 39 0 13 9 35 20 48 10 14 16 28 13 32 -11 10
-43 -47 -43 -76 0 -42 -33 -37 -48 6 -24 65 -101 89 -148 45 -33 -31 -32 -81
3 -133 38 -56 42 -58 93 -52 l45 5 -35 -29 c-38 -33 -49 -36 -70 -17 -7 6 -1
-9 13 -34 14 -26 23 -49 20 -53 -3 -3 -25 -6 -48 -6 -30 0 -49 7 -75 29 -39
33 -40 31 15 59 31 16 35 21 18 22 -33 0 -81 65 -93 127 -6 29 -8 58 -5 63 4
6 -7 24 -24 41 -17 16 -31 33 -31 38 0 15 36 41 58 41 11 0 24 5 27 10 8 13
98 13 112 -1 8 -8 13 -8 17 0 4 6 0 11 -8 11 -9 0 -16 4 -16 8 0 10 -91 9
-108 -2 -21 -13 -13 9 18 52 17 24 52 53 82 69 47 24 64 28 143 28 74 0 97 -4
132 -23 23 -12 45 -22 49 -22 11 0 -5 108 -21 146 -11 26 -20 34 -40 34 -14 0
-27 -6 -29 -12z m-300 -140 c14 -13 12 -19 -11 -46 -31 -37 -52 -40 -88 -12
-32 25 -44 59 -26 72 20 13 108 3 125 -14z m162 -264 c28 -20 47 -63 33 -77
-5 -5 -36 -18 -67 -29 -55 -19 -59 -19 -71 -2 -7 10 -13 33 -13 51 0 61 67 93
118 57z"/>
<path d="M8740 5755 c-10 -12 -10 -18 0 -30 16 -19 39 -19 46 0 6 15 -11 45
-26 45 -4 0 -13 -7 -20 -15z m31 -18 c-13 -13 -26 -3 -16 12 3 6 11 8 17 5 6
-4 6 -10 -1 -17z"/>
<path d="M8271 6008 c-1 -9 -8 -24 -17 -33 -9 -8 -17 -26 -18 -39 0 -13 -4
-22 -8 -20 -4 3 -12 -13 -19 -35 -9 -30 -9 -47 0 -73 7 -18 15 -44 17 -58 10
-49 24 -45 24 7 0 29 5 55 11 58 6 4 7 19 4 36 -4 19 -3 29 5 29 8 0 9 11 5
33 -6 24 -4 29 5 21 6 -6 14 -30 17 -53 5 -38 18 -59 29 -49 2 3 -5 36 -17 74
-32 107 -37 121 -38 102z"/>
<path d="M8838 5933 c7 -3 16 -2 19 1 4 3 -2 6 -13 5 -11 0 -14 -3 -6 -6z"/>
<path d="M8931 5920 c9 -5 28 -6 45 0 27 8 26 8 -16 9 -32 0 -40 -2 -29 -9z"/>
<path d="M2717 5880 c-20 -21 -45 -56 -55 -77 -30 -58 -54 -165 -44 -193 7
-19 10 -8 15 49 7 85 39 161 92 220 21 22 35 41 32 41 -2 0 -21 -18 -40 -40z"/>
<path d="M8974 5815 c11 -8 22 -12 25 -9 6 6 -19 24 -34 24 -5 -1 -1 -7 9 -15z"/>
<path d="M8295 5778 c-4 -10 -4 -26 0 -35 8 -17 8 -17 12 0 3 9 3 25 0 35 -4
16 -4 16 -12 0z"/>
<path d="M3881 5748 c-5 -13 -14 -50 -21 -83 -7 -33 -16 -64 -20 -68 -4 -4
-15 12 -24 37 -16 42 -19 44 -42 34 -26 -12 -33 -38 -10 -38 8 0 24 -26 38
-60 35 -92 51 -83 81 46 14 58 27 108 31 111 3 3 48 8 101 11 71 3 95 8 95 18
0 11 -24 14 -110 14 -105 0 -111 -1 -119 -22z"/>
<path d="M4267 5749 c4 -13 8 -18 11 -10 2 7 -1 18 -6 23 -8 8 -9 4 -5 -13z"/>
<path d="M8886 5761 c-11 -18 6 -41 31 -41 20 0 24 4 21 23 -3 23 -41 37 -52
18z m44 -10 c0 -5 -7 -11 -15 -15 -15 -5 -20 5 -8 17 9 10 23 9 23 -2z"/>
<path d="M2850 5740 c-39 -39 -14 -100 42 -100 53 0 79 74 36 104 -30 21 -54
20 -78 -4z m60 -40 c0 -13 -7 -20 -20 -20 -13 0 -20 7 -20 20 0 13 7 20 20 20
13 0 20 -7 20 -20z"/>
<path d="M2951 5634 c-61 -111 -68 -133 -38 -121 11 4 137 217 137 232 0 3 -8
5 -17 5 -12 0 -38 -37 -82 -116z"/>
<path d="M5746 5739 c-112 -31 -89 -189 28 -189 14 0 40 13 58 29 74 66 10
186 -86 160z m64 -49 c35 -35 21 -93 -26 -104 -58 -15 -100 51 -62 99 24 30
61 32 88 5z"/>
<path d="M4804 5726 c-68 -30 -83 -95 -35 -148 39 -44 98 -46 138 -6 33 34 22
49 -18 25 -63 -35 -109 -16 -109 47 0 51 56 72 105 40 29 -19 52 -10 33 13
-11 13 -69 44 -80 43 -2 -1 -17 -7 -34 -14z"/>
<path d="M4950 5645 l0 -95 55 0 c42 0 55 3 55 15 0 10 -11 15 -35 15 -31 0
-35 3 -35 25 0 22 4 25 35 25 24 0 35 5 35 15 0 10 -10 15 -34 15 -22 0 -36 6
-40 17 -8 20 10 33 47 33 17 0 27 5 27 15 0 12 -13 15 -55 15 l-55 0 0 -95z"/>
<path d="M5241 5724 c0 -11 3 -14 6 -6 3 7 2 16 -1 19 -3 4 -6 -2 -5 -13z"/>
<path d="M5890 5649 c0 -81 2 -90 18 -87 14 3 16 13 14 56 -2 29 1 52 5 52 4
-1 25 -26 46 -56 50 -72 72 -71 71 4 -3 115 -4 122 -19 122 -10 0 -15 -15 -17
-57 l-3 -58 -40 57 c-23 33 -48 58 -57 58 -16 0 -18 -11 -18 -91z"/>
<path d="M4283 5685 c0 -22 2 -30 4 -17 2 12 2 30 0 40 -3 9 -5 -1 -4 -23z"/>
<path d="M8281 5700 c0 -8 4 -24 9 -35 l9 -20 0 20 c0 11 -4 27 -9 35 -9 13
-10 13 -9 0z"/>
<path d="M3583 5640 c0 -36 2 -50 4 -32 2 17 2 47 0 65 -2 17 -4 3 -4 -33z"/>
<path d="M5253 5640 c0 -36 2 -50 4 -32 2 17 2 47 0 65 -2 17 -4 3 -4 -33z"/>
<path d="M4553 5635 c0 -22 2 -30 4 -17 2 12 2 30 0 40 -3 9 -5 -1 -4 -23z"/>
<path d="M4278 5591 c-10 -100 -89 -210 -186 -258 -44 -21 -78 -29 -147 -34
l-90 -7 90 2 c76 1 99 5 147 29 107 52 184 157 195 263 3 30 3 54 1 54 -3 0
-8 -22 -10 -49z"/>
<path d="M3023 5620 c-24 -10 -38 -48 -29 -78 9 -28 52 -45 79 -31 45 24 50
67 11 98 -30 23 -30 23 -61 11z m47 -49 c0 -26 -17 -36 -36 -21 -11 10 -12 16
-3 26 17 20 39 17 39 -5z"/>
<path d="M8500 5610 c0 -5 5 -10 11 -10 5 0 7 5 4 10 -3 6 -8 10 -11 10 -2 0
-4 -4 -4 -10z"/>
<path d="M8271 5593 c0 -5 4 -17 9 -28 8 -18 9 -17 9 8 1 15 -3 27 -9 27 -5 0
-10 -3 -9 -7z"/>
<path d="M3591 5554 c0 -11 3 -14 6 -6 3 7 2 16 -1 19 -3 4 -6 -2 -5 -13z"/>
<path d="M5241 5559 c-2 -33 -63 -139 -97 -168 -65 -57 -131 -84 -229 -92
l-90 -7 90 2 c109 3 162 24 234 91 52 49 106 143 98 172 -4 15 -5 15 -6 2z"/>
<path d="M8372 5512 c-11 -31 7 -150 20 -137 4 4 10 -6 13 -21 3 -16 12 -50
20 -75 19 -59 19 -69 -1 -69 -9 0 -12 -5 -8 -12 4 -7 3 -10 -1 -5 -5 4 -10 26
-12 50 -3 23 -13 51 -23 62 -10 11 -21 30 -25 43 -4 13 -8 22 -10 20 -5 -5 59
-215 68 -224 4 -4 7 -1 7 8 0 8 8 22 18 32 39 34 48 99 27 179 -2 4 -3 10 -4
15 -1 4 -5 0 -10 -7 -8 -12 -11 -8 -17 15 -4 16 -13 36 -21 45 -7 9 -16 36
-19 60 -7 55 -9 57 -22 21z"/>
<path d="M3600 5525 c0 -5 5 -17 10 -25 5 -8 10 -10 10 -5 0 6 -5 17 -10 25
-5 8 -10 11 -10 5z"/>
<path d="M8415 5510 c-3 -5 -1 -10 4 -10 6 0 11 5 11 10 0 6 -2 10 -4 10 -3 0
-8 -4 -11 -10z"/>
<path d="M6162 5475 c-6 -14 -31 -46 -54 -72 -41 -47 -41 -47 -4 -13 38 36 82
98 74 106 -3 2 -10 -7 -16 -21z"/>
<path d="M3637 5452 c10 -18 33 -47 52 -65 l35 -32 -34 40 c-19 22 -43 51 -53
65 -17 24 -17 24 0 -8z"/>
<path d="M8321 5424 c0 -11 3 -14 6 -6 3 7 2 16 -1 19 -3 4 -6 -2 -5 -13z"/>
<path d="M3210 5378 c-25 -22 -36 -36 -25 -30 19 10 84 72 74 72 -2 -1 -24
-19 -49 -42z"/>
<path d="M6034 5344 c-18 -14 -18 -15 4 -4 12 6 22 13 22 15 0 8 -5 6 -26 -11z"/>
<path d="M8608 5353 c7 -3 16 -2 19 1 4 3 -2 6 -13 5 -11 0 -14 -3 -6 -6z"/>
<path d="M4724 5336 c11 -9 24 -16 30 -16 12 0 7 5 -24 19 -24 11 -24 11 -6
-3z"/>
<path d="M3130 5325 c-14 -8 -20 -14 -14 -15 5 0 19 7 30 15 24 18 16 19 -16
0z"/>
<path d="M3785 5321 c6 -5 24 -13 40 -17 39 -9 30 0 -15 15 -19 6 -30 7 -25 2z"/>
<path d="M5980 5320 c-8 -5 -10 -10 -5 -10 6 0 17 5 25 10 8 5 11 10 5 10 -5
0 -17 -5 -25 -10z"/>
<path d="M4780 5310 c8 -5 22 -9 30 -9 10 0 8 3 -5 9 -27 12 -43 12 -25 0z"/>
<path d="M2870 5300 c8 -5 22 -9 30 -9 10 0 8 3 -5 9 -27 12 -43 12 -25 0z"/>
<path d="M3048 5293 c7 -3 16 -2 19 1 4 3 -2 6 -13 5 -11 0 -14 -3 -6 -6z"/>
<path d="M5808 5293 c7 -3 16 -2 19 1 4 3 -2 6 -13 5 -11 0 -14 -3 -6 -6z"/>
<path d="M5848 5293 c6 -2 18 -2 25 0 6 3 1 5 -13 5 -14 0 -19 -2 -12 -5z"/>
<path d="M2958 5283 c12 -2 32 -2 45 0 12 2 2 4 -23 4 -25 0 -35 -2 -22 -4z"/>
<path d="M8924 5236 c-127 -59 -177 -202 -114 -326 11 -21 33 -48 50 -60 24
-17 28 -25 20 -40 -6 -10 -10 -25 -9 -32 0 -7 6 -1 12 14 15 33 47 68 62 68 6
0 21 -26 32 -57 17 -46 22 -52 22 -30 1 16 -6 35 -14 43 -21 21 -19 54 3 55
11 1 8 4 -8 8 -36 10 -38 38 -3 53 21 8 24 12 11 15 -9 2 -27 -1 -39 -7 -16
-9 -20 -18 -15 -40 4 -23 0 -32 -20 -45 -25 -16 -26 -16 -64 24 -65 68 -73
180 -21 265 27 42 66 72 129 97 26 10 40 18 32 18 -8 1 -38 -10 -66 -23z"/>
<path d="M30 5192 c-19 -6 -26 -16 -28 -41 -3 -29 -1 -33 14 -27 10 4 37 11
60 16 120 27 257 -65 295 -198 18 -66 7 -177 -24 -239 -47 -92 -102 -134 -222
-169 -31 -10 -41 -30 -26 -53 7 -11 18 -11 64 3 114 33 209 127 248 245 30 88
24 205 -14 283 -32 66 -95 130 -157 160 -47 24 -161 34 -210 20z"/>
<path d="M4827 5130 c-104 -26 -202 -106 -246 -200 -22 -47 -26 -69 -26 -150
0 -82 4 -103 27 -152 34 -73 98 -137 174 -174 52 -25 70 -29 149 -29 78 0 98
4 150 28 112 52 183 144 205 266 21 117 -15 227 -105 317 -78 79 -223 120
-328 94z m228 -44 c184 -91 249 -314 142 -488 -111 -182 -371 -217 -524 -70
-71 68 -97 128 -101 232 -4 103 19 175 77 242 40 45 120 95 175 109 62 16 171
4 231 -25z"/>
<path d="M4840 4944 c-19 -8 -25 -12 -12 -10 12 2 22 1 22 -4 0 -11 -30 -21
-41 -15 -5 4 -6 -2 -2 -11 4 -11 3 -15 -5 -10 -7 4 -15 -8 -21 -31 -18 -64
-11 -143 13 -143 17 0 43 -34 39 -50 -3 -9 2 -7 11 4 18 22 21 14 7 -12 -8
-15 -3 -17 40 -17 30 0 53 6 58 14 5 7 12 12 16 11 7 -1 24 23 41 60 4 8 12
18 18 22 8 5 7 11 -2 20 -6 6 -12 19 -12 27 0 11 4 10 14 -5 14 -18 15 -18 14
6 -2 72 -54 137 -108 132 -22 -1 -22 -1 -5 7 18 7 17 8 -8 13 -15 3 -27 1 -27
-3 0 -5 -5 -9 -11 -9 -5 0 -7 5 -4 10 7 12 9 12 -35 -6z"/>
<path d="M2853 5110 c-63 -22 -98 -46 -146 -99 -162 -180 -108 -455 111 -563
60 -30 75 -33 157 -33 78 0 98 4 152 29 117 54 201 175 209 299 l3 62 -9 -50
c-34 -195 -152 -312 -326 -323 -141 -9 -267 61 -329 184 -27 54 -30 68 -30
159 0 89 3 106 27 151 35 66 89 118 163 157 53 27 70 31 145 32 74 0 92 -4
145 -30 83 -40 87 -41 33 -6 -83 54 -208 66 -305 31z"/>
<path d="M3799 5107 c-90 -38 -143 -87 -189 -177 -35 -67 -40 -204 -10 -282
58 -155 236 -257 398 -227 148 28 250 124 289 271 31 118 -4 241 -95 333 -70
71 -137 99 -247 103 -76 2 -99 -1 -146 -21z m285 -25 c74 -35 124 -85 162
-161 25 -49 28 -68 29 -146 0 -78 -4 -97 -27 -145 -35 -71 -97 -133 -167 -168
-49 -23 -68 -27 -146 -27 -77 1 -98 5 -146 28 -69 33 -132 100 -167 175 -34
75 -35 180 -3 265 37 95 137 180 245 208 56 15 155 2 220 -29z"/>
<path d="M3915 4939 c4 -6 1 -10 -6 -8 -32 4 -49 -2 -49 -17 0 -9 -5 -12 -12
-8 -7 4 -10 4 -6 -1 4 -4 -1 -15 -12 -24 -18 -16 -47 -147 -35 -159 3 -3 5 2
5 11 0 10 5 17 10 17 7 0 8 -13 5 -34 -6 -28 -2 -38 24 -65 17 -17 37 -31 46
-31 8 0 15 -5 15 -11 0 -7 10 -9 28 -5 15 4 36 8 47 9 28 2 50 26 64 69 7 20
16 38 21 40 6 2 12 25 14 52 5 45 4 47 -10 30 -14 -17 -15 -17 -10 -1 7 22 -4
78 -15 72 -4 -3 -9 5 -11 17 -2 14 -9 23 -20 22 -9 -1 -14 4 -12 11 6 15 -23
28 -31 15 -4 -7 -13 -6 -25 0 -24 13 -33 13 -25 -1z m-35 -53 c0 -3 -4 -8 -10
-11 -5 -3 -10 -1 -10 4 0 6 5 11 10 11 6 0 10 -2 10 -4z m167 -128 c-3 -8 -6
-5 -6 6 -1 11 2 17 5 13 3 -3 4 -12 1 -19z m-27 -88 c0 -5 -10 -15 -22 -21
l-23 -12 20 21 c23 24 25 25 25 12z"/>
<path d="M4052 4681 c-6 -17 -9 -31 -6 -31 7 0 25 52 20 57 -2 2 -8 -10 -14
-26z"/>
<path d="M5788 5123 c6 -2 18 -2 25 0 6 3 1 5 -13 5 -14 0 -19 -2 -12 -5z"/>
<path d="M5730 5110 c-8 -5 -10 -10 -5 -10 6 0 17 5 25 10 8 5 11 10 5 10 -5
0 -17 -5 -25 -10z"/>
<path d="M5630 5047 c-14 -12 -34 -33 -45 -47 -11 -14 1 -5 27 20 27 25 48 46
48 48 0 5 -6 1 -30 -21z"/>
<path d="M0 4915 c0 -104 2 -115 18 -115 68 0 116 114 75 177 -14 21 -66 53
-88 53 -3 0 -5 -52 -5 -115z"/>
<path d="M3230 5016 c0 -2 8 -10 18 -17 15 -13 16 -12 3 4 -13 16 -21 21 -21
13z"/>
<path d="M8464 4963 c2 -21 4 -46 5 -55 0 -10 8 -18 16 -18 8 0 15 -7 15 -16
0 -8 5 -12 10 -9 6 4 10 -9 10 -32 0 -29 -3 -34 -10 -23 -8 11 -9 7 -4 -15 7
-28 13 -37 39 -50 6 -3 5 -7 -2 -11 -18 -8 -16 -23 6 -66 11 -19 17 -39 14
-42 -4 -3 3 -6 15 -6 12 0 22 -6 22 -12 0 -8 5 -5 11 4 7 13 5 24 -6 42 -9 14
-18 49 -20 78 -2 29 -4 56 -4 61 -1 4 -8 7 -17 7 -8 0 -12 -4 -9 -10 3 -5 -1
-10 -9 -10 -9 0 -16 7 -16 15 0 8 4 15 9 15 5 0 5 16 0 38 -5 20 -9 51 -9 68
0 34 -24 65 -33 42 -2 -7 -8 -1 -12 15 -11 40 -25 33 -21 -10z"/>
<path d="M3276 4955 c24 -39 24 -40 24 -28 0 6 -9 21 -21 34 l-20 24 17 -30z"/>
<path d="M2956 4943 c-4 -4 -13 -8 -19 -9 -7 0 -20 -2 -30 -2 -10 -1 -16 -6
-13 -11 4 -5 0 -11 -6 -14 -7 -2 -10 -7 -7 -11 4 -4 14 0 22 9 9 8 18 11 21 6
3 -5 -1 -11 -9 -15 -9 -3 -15 -19 -16 -38 l-1 -33 -8 30 c-5 20 -8 24 -9 10
-1 -11 -4 -31 -7 -45 -4 -20 -3 -22 5 -10 7 10 11 11 11 3 0 -7 7 -10 15 -6
14 5 14 2 3 -23 -7 -16 -17 -32 -23 -36 -6 -5 -5 -11 4 -17 9 -6 10 -11 2 -15
-12 -8 -11 -56 2 -56 4 0 6 -4 2 -9 -8 -13 24 -29 46 -24 27 7 24 -6 -3 -17
-19 -7 -20 -9 -5 -9 36 -2 80 31 91 67 4 12 12 20 17 16 6 -3 13 3 16 15 3 12
11 21 18 21 18 0 26 52 15 91 -5 18 -7 35 -5 38 3 2 5 -1 5 -8 0 -7 5 -9 10
-6 6 3 10 1 10 -6 0 -7 2 -10 5 -7 4 3 3 18 -1 33 -5 20 -9 23 -15 13 -6 -9
-9 -8 -9 8 0 33 -39 59 -84 56 -25 -2 -36 0 -31 7 7 12 -8 15 -19 4z m115 -51
c-7 -2 -18 1 -23 6 -8 8 -4 9 13 5 13 -4 18 -8 10 -11z m-166 -192 c3 -5 1
-10 -4 -10 -6 0 -11 5 -11 10 0 6 2 10 4 10 3 0 8 -4 11 -10z"/>
<path d="M5843 4884 c-3 -8 -1 -20 5 -26 16 -16 42 -2 42 22 0 24 -38 28 -47
4z"/>
<path d="M3322 4835 c0 -16 2 -22 5 -12 2 9 2 23 0 30 -3 6 -5 -1 -5 -18z"/>
<path d="M5513 4785 c0 -38 2 -53 4 -32 2 20 2 52 0 70 -2 17 -4 1 -4 -38z"/>
<path d="M5747 4803 c-4 -3 -7 -12 -7 -20 0 -10 28 -13 125 -13 118 0 125 1
125 20 0 19 -7 20 -118 20 -65 0 -122 -3 -125 -7z"/>
<path d="M5843 4694 c-3 -8 -1 -20 5 -26 16 -16 42 -2 42 22 0 24 -38 28 -47
4z"/>
<path d="M1 4614 c0 -11 3 -14 6 -6 3 7 2 16 -1 19 -3 4 -6 -2 -5 -13z"/>
<path d="M8584 4564 c3 -9 6 -22 6 -30 0 -8 5 -14 10 -14 6 0 10 14 10 30 0
21 -5 30 -16 30 -11 0 -14 -5 -10 -16z"/>
<path d="M8632 4530 c0 -19 2 -27 5 -17 2 9 2 25 0 35 -3 9 -5 1 -5 -18z"/>
<path d="M8685 4480 c-8 -13 5 -13 25 0 13 8 13 10 -2 10 -9 0 -20 -4 -23 -10z"/>
<path d="M4830 4266 c-267 -59 -369 -383 -187 -592 20 -22 64 -56 99 -75 60
-33 67 -34 168 -34 95 0 110 3 157 27 29 16 69 42 88 60 38 33 95 122 95 148
0 8 -12 -7 -26 -35 -128 -252 -483 -255 -611 -5 -39 77 -45 199 -12 284 27 75
97 147 177 184 77 36 200 38 278 3 109 -48 189 -165 203 -298 8 -75 8 -76 10
-22 2 104 -44 207 -124 277 -48 43 -89 63 -160 78 -72 16 -84 16 -155 0z"/>
<path d="M5795 4269 c-20 -5 -9 -6 30 -2 33 3 62 7 64 9 8 7 -63 2 -94 -7z"/>
<path d="M2875 4257 c-70 -24 -120 -54 -162 -100 -121 -132 -135 -305 -36
-454 37 -55 73 -87 143 -124 39 -21 59 -24 150 -24 94 0 111 3 161 27 99 49
180 151 193 244 l6 39 -13 -45 c-21 -68 -43 -106 -93 -155 -143 -138 -360
-134 -493 10 -60 65 -84 124 -89 220 -6 123 33 209 130 286 95 75 238 93 349
43 32 -15 64 -33 71 -41 6 -8 21 -19 32 -25 12 -6 6 4 -14 23 -79 74 -234 109
-335 76z"/>
<path d="M3813 4251 c-146 -54 -236 -184 -234 -339 0 -90 13 -133 59 -202 47
-70 140 -134 219 -150 161 -34 329 44 401 186 91 178 16 402 -163 490 -78 38
-203 44 -282 15z m272 -32 c67 -33 131 -98 163 -167 22 -48 27 -71 27 -142 0
-104 -29 -174 -100 -245 -69 -69 -139 -98 -239 -98 -139 1 -246 68 -307 191
-29 59 -33 77 -33 147 0 67 4 90 28 143 35 77 111 149 187 180 76 31 202 27
274 -9z"/>
<path d="M3860 4069 c0 -5 5 -9 10 -9 6 0 10 -8 10 -17 0 -15 -2 -15 -9 -4
-12 18 -41 7 -48 -19 -3 -11 -11 -20 -18 -20 -20 0 -26 -27 -20 -99 8 -95 24
-143 46 -138 12 3 16 0 12 -9 -3 -8 7 -15 31 -20 20 -3 39 -10 41 -15 9 -13
68 2 88 22 10 11 22 19 26 19 5 0 12 10 15 23 7 21 8 21 15 3 7 -19 8 -18 14
4 3 13 2 27 -4 31 -7 4 -5 9 5 12 19 7 23 87 5 87 -7 0 -9 10 -5 25 4 16 2 25
-5 25 -7 0 -9 3 -6 7 4 3 -2 12 -13 20 -11 8 -20 24 -20 36 0 41 -12 47 -93
46 -42 -1 -77 -5 -77 -10z m154 -17 c2 -4 -5 -9 -17 -9 -17 -2 -19 0 -7 7 18
12 18 12 24 2z"/>
<path d="M4038 4045 c2 -19 8 -35 12 -35 5 0 7 12 5 28 -2 15 -4 30 -4 35 -1
4 -5 7 -9 7 -4 0 -6 -16 -4 -35z"/>
<path d="M5730 4250 c-8 -5 -10 -10 -5 -10 6 0 17 5 25 10 8 5 11 10 5 10 -5
0 -17 -5 -25 -10z"/>
<path d="M8958 4229 c-10 -5 -23 -20 -28 -32 -10 -20 -10 -21 4 -4 8 10 23 25
33 32 21 17 16 19 -9 4z"/>
<path d="M6140 4134 c0 -5 7 -18 15 -28 8 -11 15 -16 15 -10 0 5 -7 18 -15 28
-8 11 -15 16 -15 10z"/>
<path d="M2933 4050 c-21 -14 -43 -36 -49 -49 -6 -12 -21 -29 -33 -37 -16 -12
-21 -26 -21 -58 0 -68 10 -105 31 -111 11 -4 19 -14 19 -23 0 -15 2 -15 10 -2
6 10 10 11 10 3 0 -7 7 -13 15 -13 9 0 28 -9 43 -19 32 -23 82 -36 82 -21 0 5
5 10 11 10 19 0 64 56 63 78 -1 12 2 19 7 16 14 -8 41 54 31 74 -5 9 -7 23 -4
30 2 8 -5 27 -17 43 -11 15 -21 36 -22 46 0 16 -1 16 -10 -2 -7 -15 -8 -11 -5
18 3 20 1 37 -5 37 -5 0 -9 -5 -9 -11 0 -5 -5 -7 -10 -4 -6 4 -8 10 -6 14 3 4
-17 7 -44 7 -36 0 -59 -7 -87 -26z m47 5 c-7 -9 -15 -13 -19 -10 -3 3 1 10 9
15 21 14 24 12 10 -5z m-77 -70 c-3 -9 -8 -14 -10 -11 -3 3 -2 9 2 15 9 16 15
13 8 -4z m197 -189 c0 -3 -4 -8 -10 -11 -5 -3 -10 -1 -10 4 0 6 5 11 10 11 6
0 10 -2 10 -4z"/>
<path d="M4857 4061 c-31 -21 -47 -44 -42 -59 3 -7 0 -10 -5 -7 -6 3 -10 1
-10 -5 0 -6 -7 -18 -15 -26 -17 -17 -21 -124 -5 -124 5 0 7 -6 5 -12 -8 -23
45 -68 80 -68 8 0 15 -4 15 -10 0 -5 18 -10 40 -10 28 0 43 6 51 19 7 10 20
16 29 14 10 -3 21 0 24 6 4 7 1 8 -8 5 -9 -3 -16 -3 -16 1 0 11 27 34 34 28 3
-4 6 1 6 10 0 10 4 17 9 17 5 0 4 16 -2 36 -8 27 -8 37 2 43 16 10 5 54 -20
77 -10 9 -19 22 -19 29 0 7 -8 21 -17 32 -22 25 -103 27 -136 4z m168 -72 c11
-16 1 -19 -13 -3 -7 8 -8 14 -3 14 5 0 13 -5 16 -11z m9 -45 c3 -8 2 -12 -4
-9 -6 3 -10 10 -10 16 0 14 7 11 14 -7z m-180 -173 c-6 -6 -54 40 -54 51 0 5
13 -3 29 -19 16 -15 27 -30 25 -32z"/>
<path d="M6189 4030 c9 -27 17 -44 19 -39 4 11 -17 77 -27 83 -4 3 0 -17 8
-44z"/>
<path d="M5774 4005 c-4 -11 5 -28 27 -51 l33 -34 -32 -33 c-56 -57 -37 -84
22 -32 l39 34 36 -30 c61 -50 87 -28 31 26 -16 16 -30 33 -30 39 0 5 14 25 32
43 25 26 29 36 20 45 -9 9 -21 4 -50 -25 -35 -34 -40 -36 -52 -22 -7 9 -26 25
-42 36 -25 18 -29 19 -34 4z"/>
<path d="M8980 3981 c0 -6 4 -13 10 -16 6 -3 7 1 4 9 -7 18 -14 21 -14 7z"/>
<path d="M6213 3920 c0 -30 2 -43 4 -27 2 15 2 39 0 55 -2 15 -4 2 -4 -28z"/>
<path d="M8892 3804 c-7 -8 -8 -14 -3 -14 10 0 25 19 20 25 -2 1 -10 -3 -17
-11z"/>
<path d="M6155 3729 c-4 -6 -5 -12 -2 -15 2 -3 7 2 10 11 7 17 1 20 -8 4z"/>
<path d="M3864 3410 c-185 -37 -317 -228 -284 -411 20 -111 73 -192 162 -249
184 -119 432 -46 525 154 24 53 28 73 28 151 0 77 -4 98 -27 147 -51 110 -148
185 -267 208 -61 11 -79 11 -137 0z m195 -35 c89 -31 160 -101 199 -198 21
-52 24 -72 20 -141 -7 -103 -32 -161 -101 -230 -94 -95 -233 -123 -362 -75
-82 31 -163 112 -194 194 -33 86 -27 208 13 282 87 160 258 227 425 168z"/>
<path d="M3890 3229 c-36 -18 -69 -39 -74 -48 -5 -8 -19 -25 -30 -36 -17 -18
-22 -37 -24 -103 -3 -67 0 -82 12 -82 12 0 39 -54 41 -82 0 -4 6 -13 13 -19
10 -11 12 -9 12 6 0 18 1 18 16 -3 21 -31 94 -63 116 -51 26 14 73 60 71 69
-1 4 6 15 17 25 10 9 16 24 13 33 -3 12 -2 13 4 5 12 -17 36 12 52 60 7 20 16
37 22 39 11 4 -22 77 -36 78 -5 0 -18 18 -27 40 -9 22 -23 40 -32 40 -8 0 -17
9 -21 19 -3 10 -16 22 -29 25 -13 3 -30 8 -38 11 -8 3 -43 -9 -78 -26z m-5
-39 c-3 -5 -12 -10 -18 -10 -7 0 -6 4 3 10 19 12 23 12 15 0z"/>
<path d="M4055 2890 c-3 -5 -2 -10 4 -10 5 0 13 5 16 10 3 6 2 10 -4 10 -5 0
-13 -4 -16 -10z"/>
<path d="M4801 3406 c-114 -38 -218 -151 -242 -264 -38 -183 56 -357 228 -422
47 -18 73 -21 140 -18 144 7 250 78 312 208 22 47 26 68 26 150 0 83 -3 102
-27 151 -35 70 -107 142 -177 176 -66 33 -190 41 -260 19z m251 -39 c72 -35
130 -94 165 -166 23 -47 27 -70 28 -141 0 -73 -4 -94 -28 -145 -85 -183 -283
-253 -464 -164 -71 34 -120 86 -161 169 -39 79 -38 189 1 275 43 92 119 161
212 192 67 22 181 13 247 -20z"/>
<path d="M4853 3253 c-23 -3 -30 -8 -26 -19 3 -9 -2 -14 -15 -14 -12 0 -24 -5
-28 -12 -4 -6 -3 -8 4 -4 6 3 13 2 17 -3 3 -6 -7 -17 -23 -25 -30 -16 -42 -47
-42 -112 0 -18 -4 -36 -10 -39 -19 -12 -10 -40 25 -78 19 -21 35 -45 35 -53 0
-8 5 -12 11 -9 6 4 17 -2 25 -14 8 -12 22 -21 30 -21 8 0 17 -7 20 -15 4 -10
20 -15 45 -15 28 0 39 4 39 15 0 8 7 15 15 15 8 0 15 5 15 10 0 6 11 22 25 36
18 18 24 34 22 52 -3 19 3 32 20 46 22 17 24 23 18 69 -9 60 -24 82 -41 58
-10 -12 -11 -7 -4 27 6 34 4 45 -7 49 -8 3 -19 0 -25 -8 -7 -10 -8 -8 -3 8 4
16 1 23 -15 28 -11 3 -20 13 -20 21 0 14 -32 16 -107 7z m172 -323 c3 -5 1
-10 -4 -10 -6 0 -11 5 -11 10 0 6 2 10 4 10 3 0 8 -4 11 -10z"/>
<path d="M5020 2886 c0 -2 7 -7 16 -10 8 -3 12 -2 9 4 -6 10 -25 14 -25 6z"/>
<path d="M5833 3413 c20 -2 54 -2 75 0 20 2 3 4 -38 4 -41 0 -58 -2 -37 -4z"/>
<path d="M2884 3401 c-151 -39 -262 -172 -272 -327 -12 -191 106 -345 296
-385 110 -22 241 20 324 106 219 226 71 600 -242 611 -41 2 -89 0 -106 -5z
m236 -43 c71 -35 133 -97 167 -167 22 -46 27 -71 27 -141 1 -77 -2 -92 -32
-152 -36 -74 -95 -132 -170 -169 -39 -20 -62 -24 -142 -24 -89 0 -99 2 -158
34 -70 38 -119 89 -154 160 -19 39 -23 62 -23 146 0 106 12 143 72 221 87 115
280 157 413 92z"/>
<path d="M2960 3256 c0 -18 -7 -26 -27 -30 -91 -22 -110 -57 -99 -182 9 -104
12 -111 46 -123 37 -12 40 -41 5 -41 -40 0 -29 -17 25 -36 28 -10 50 -24 50
-31 0 -9 14 -13 40 -13 33 0 40 3 40 19 0 15 10 21 40 26 34 6 40 10 40 31 0
23 25 72 43 85 13 9 -3 170 -20 203 -11 20 -17 25 -23 16 -5 -8 -9 -9 -14 -1
-4 6 -5 15 -2 20 7 10 -37 31 -67 31 -31 0 -51 15 -44 34 5 11 1 16 -13 16
-14 0 -20 -7 -20 -24z"/>
<path d="M5725 3392 c-49 -21 -110 -68 -131 -102 -15 -25 -15 -25 3 -5 49 52
85 78 139 100 33 14 52 24 44 24 -8 0 -33 -8 -55 -17z"/>
<path d="M5522 3140 c0 -14 2 -19 5 -12 2 6 2 18 0 25 -3 6 -5 1 -5 -13z"/>
<path d="M5513 3065 c0 -27 2 -38 4 -22 2 15 2 37 0 50 -2 12 -4 0 -4 -28z"/>
<path d="M5773 3083 c-13 -2 -23 -11 -23 -19 0 -11 23 -14 125 -14 118 0 125
1 125 20 0 19 -6 20 -102 19 -57 -1 -113 -4 -125 -6z"/>
<path d="M5521 2984 c0 -11 3 -14 6 -6 3 7 2 16 -1 19 -3 4 -6 -2 -5 -13z"/>
<path d="M4840 2539 c-209 -43 -335 -258 -272 -465 13 -41 34 -83 52 -104 l31
-35 -38 70 c-36 66 -38 75 -38 160 0 77 4 98 27 147 103 221 392 270 560 95
64 -67 91 -139 91 -237 0 -43 -8 -94 -17 -119 -21 -57 -15 -63 10 -9 15 33 19
66 19 143 0 91 -3 105 -30 158 -72 143 -242 228 -395 196z"/>
<path d="M3822 2521 c-154 -54 -248 -189 -246 -353 1 -68 5 -87 38 -152 39
-80 89 -131 161 -166 59 -29 144 -42 202 -32 44 8 41 8 -38 9 -77 0 -92 3
-148 33 -123 66 -191 176 -191 309 0 228 215 396 430 338 205 -56 311 -283
223 -477 -30 -67 -71 -113 -144 -162 -55 -37 -36 -36 22 0 54 35 110 98 141
161 19 39 23 62 23 146 0 89 -3 106 -27 156 -28 56 -102 138 -142 157 -81 38
-108 46 -176 49 -54 2 -90 -2 -128 -16z"/>
<path d="M2858 2517 c-171 -64 -272 -226 -247 -399 14 -104 67 -188 155 -249
61 -42 64 -36 6 11 -98 77 -142 164 -142 280 0 90 28 164 86 229 83 93 178
129 299 116 48 -5 64 -10 54 -17 -10 -7 -8 -8 9 -3 29 8 136 -51 128 -71 -3
-8 0 -11 8 -8 14 6 56 -51 82 -111 22 -51 25 -195 5 -245 -25 -62 -70 -126
-108 -153 -21 -15 -32 -27 -25 -27 22 0 103 83 127 130 94 187 19 409 -170
500 -61 30 -207 39 -267 17z"/>
<path d="M3920 2416 c0 -8 -11 -16 -27 -18 -20 -2 -29 -11 -38 -38 -7 -19 -14
-34 -16 -32 -2 2 -16 -1 -31 -7 -17 -6 -28 -20 -33 -40 -4 -17 -15 -33 -26
-36 -17 -6 -19 -16 -19 -83 0 -49 6 -88 15 -106 8 -15 15 -35 15 -42 0 -8 6
-14 13 -14 20 0 58 -35 49 -45 -4 -5 1 -5 11 -2 11 4 24 -1 34 -13 18 -21 53
-27 53 -10 0 15 97 13 103 -2 3 -9 14 -2 31 18 27 33 77 59 98 51 10 -3 13 10
12 49 -1 30 2 54 7 54 5 0 9 7 9 15 0 8 -4 15 -10 15 -5 0 -10 7 -10 15 0 8 7
15 15 15 8 0 15 7 15 15 0 8 -7 15 -15 15 -8 0 -15 5 -15 10 0 6 7 10 15 10 8
0 15 7 15 15 0 8 -7 15 -15 15 -8 0 -15 8 -15 18 0 25 -47 65 -69 59 -14 -3
-17 0 -14 13 3 11 -2 19 -16 23 -27 7 -27 21 2 35 20 9 17 11 -20 11 -32 1
-43 5 -43 16 0 13 -4 14 -20 5 -14 -8 -26 -8 -40 0 -16 8 -20 8 -20 -4z"/>
<path d="M2958 2403 c-20 -2 -42 -11 -48 -19 -7 -8 -19 -14 -26 -14 -7 0 -21
-11 -29 -24 -9 -13 -25 -26 -35 -29 -12 -3 -20 -14 -20 -25 0 -34 -11 -52 -31
-52 -14 0 -19 -8 -20 -32 -3 -62 3 -123 12 -126 5 -2 9 -16 9 -31 0 -31 40
-84 47 -63 8 21 20 13 26 -18 5 -21 11 -28 22 -24 9 4 15 1 15 -8 0 -8 22 -22
48 -31 46 -17 82 -15 82 4 0 5 11 9 25 9 14 0 25 -4 25 -10 0 -18 24 -11 55
16 24 20 27 27 15 34 -16 10 -15 12 22 27 20 9 28 21 33 52 4 23 11 39 15 36
5 -3 12 9 15 27 5 21 4 33 -4 36 -16 5 -13 22 4 22 12 0 13 4 6 18 -5 9 -12
45 -16 80 -4 37 -12 62 -19 62 -6 0 -25 12 -42 28 -38 34 -73 52 -99 51 -11
-1 -27 0 -35 3 -8 2 -32 3 -52 1z"/>
<path d="M4838 2376 c-20 -11 -39 -29 -41 -38 -3 -11 -15 -18 -29 -18 -18 0
-26 -8 -35 -37 -9 -29 -9 -40 0 -46 7 -5 3 -6 -9 -2 -17 4 -22 0 -27 -23 -7
-35 1 -109 16 -142 6 -14 24 -37 39 -52 15 -15 28 -33 28 -40 0 -9 -3 -9 -10
2 -6 9 -10 10 -10 3 0 -7 10 -17 21 -24 17 -9 20 -8 13 3 -10 17 27 -11 39
-29 11 -18 47 -16 47 2 0 11 11 15 40 15 29 0 40 -4 40 -15 0 -9 16 1 40 25
22 22 40 38 40 35 0 -3 9 4 20 15 11 11 31 22 45 26 22 5 25 10 20 38 -3 17
-6 40 -5 51 5 168 -1 195 -41 195 -10 0 -24 9 -31 20 -7 11 -18 20 -25 20 -7
0 -18 9 -25 20 -15 23 -58 27 -88 8 -14 -9 -23 -10 -28 -3 -5 7 -20 4 -44 -9z"/>
<path d="M5854 2270 l-6 -49 -47 -3 c-33 -2 -46 -7 -46 -18 0 -11 13 -16 47
-18 l47 -3 3 -47 c2 -35 7 -48 20 -50 14 -3 17 6 20 45 l3 48 48 3 c38 3 47 7
47 22 0 15 -9 19 -47 22 l-48 3 -3 48 c-4 66 -29 64 -38 -3z"/>
<path d="M5513 2200 c0 -25 2 -35 4 -22 2 12 2 32 0 45 -2 12 -4 2 -4 -23z"/>
<path d="M6223 2200 c0 -25 2 -35 4 -22 2 12 2 32 0 45 -2 12 -4 2 -4 -23z"/>
<path d="M5522 2120 c0 -14 2 -19 5 -12 2 6 2 18 0 25 -3 6 -5 1 -5 -13z"/>
<path d="M5540 2054 c0 -15 55 -97 80 -119 26 -24 26 -14 -1 16 -12 13 -35 44
-50 68 -16 25 -29 40 -29 35z"/>
<path d="M2838 1833 c7 -3 16 -2 19 1 4 3 -2 6 -13 5 -11 0 -14 -3 -6 -6z"/>
<path d="M4038 1833 c7 -3 16 -2 19 1 4 3 -2 6 -13 5 -11 0 -14 -3 -6 -6z"/>
<path d="M3020 1820 c-20 -6 -21 -8 -5 -8 11 0 31 4 45 8 20 6 21 8 5 8 -11 0
-31 -4 -45 -8z"/>
<path d="M2908 1813 c7 -3 16 -2 19 1 4 3 -2 6 -13 5 -11 0 -14 -3 -6 -6z"/>
</g>
</svg>
