<?xml version="1.0" standalone="no"?>
<!DOCTYPE svg PUBLIC "-//W3C//DTD SVG 20010904//EN"
 "http://www.w3.org/TR/2001/REC-SVG-20010904/DTD/svg10.dtd">
<svg version="1.0" xmlns="http://www.w3.org/2000/svg"
 width="225.000000pt" height="225.000000pt" viewBox="0 0 225.000000 225.000000"
 preserveAspectRatio="xMidYMid meet">

<g transform="translate(0.000000,225.000000) scale(0.100000,-0.100000)"
fill="#000000" stroke="none">
<path d="M1827 1836 c-83 -75 -150 -112 -292 -162 -145 -50 -192 -73 -239
-114 l-34 -30 -53 36 c-30 20 -73 45 -96 56 -39 17 -41 20 -36 51 4 26 -1 40
-21 64 -14 17 -37 34 -51 37 -13 3 -41 17 -61 31 -44 30 -78 32 -122 5 -18
-11 -49 -20 -68 -20 -45 0 -101 -26 -121 -56 -8 -13 -25 -24 -37 -24 -37 -1
-100 -35 -134 -74 -17 -20 -32 -40 -32 -44 0 -4 -16 -18 -35 -31 -42 -28 -75
-94 -75 -147 1 -111 115 -216 185 -170 40 26 48 52 42 135 l-5 76 14 -70 c7
-38 21 -87 31 -108 l16 -38 -30 -32 c-40 -43 -53 -85 -53 -177 0 -67 3 -79 23
-98 16 -15 36 -22 64 -22 25 0 46 -6 54 -16 10 -12 27 -15 73 -12 56 3 61 1
58 -17 -2 -11 -6 -42 -9 -70 -3 -27 -12 -57 -20 -66 -8 -9 -13 -33 -11 -55 1
-22 1 -58 0 -82 l-2 -42 -81 1 c-75 2 -82 1 -107 -24 -15 -14 -39 -37 -54 -51
-16 -14 -28 -34 -28 -44 0 -24 25 -46 43 -39 7 3 19 -4 25 -14 14 -23 40 -24
66 -4 11 8 34 15 50 15 20 0 53 15 90 40 63 43 91 49 122 25 10 -8 28 -15 39
-15 11 0 33 -7 48 -15 38 -19 67 -5 67 33 0 29 -17 53 -65 90 l-26 21 20 20
c12 12 21 27 21 35 0 7 27 25 59 40 l59 26 88 -20 c49 -11 99 -23 112 -25 12
-3 22 -11 22 -19 0 -29 35 -46 83 -40 25 4 54 4 63 0 15 -6 16 -8 0 -24 -9
-10 -16 -23 -16 -29 0 -6 -4 -13 -8 -15 -17 -7 -52 -90 -52 -123 0 -27 4 -35
18 -35 10 0 23 5 29 11 16 16 90 21 132 9 30 -8 39 -6 66 14 27 21 63 31 145
39 38 3 38 43 0 89 -28 34 -35 37 -91 40 l-61 3 -18 48 c-16 43 -17 50 -3 77
20 41 13 72 -19 88 -50 23 -38 53 64 163 51 54 98 109 105 121 14 27 9 157 -7
188 -6 12 -21 20 -35 20 -36 0 -39 17 -8 37 39 25 52 44 53 74 0 14 11 36 25
49 28 26 32 61 10 80 -13 11 -10 18 21 52 37 42 73 110 74 140 0 10 9 32 20
50 11 18 20 47 20 63 0 29 -24 75 -38 75 -4 -1 -33 -25 -65 -54z m77 -2 c8
-29 -1 -64 -15 -64 -6 0 -7 -4 -4 -10 3 -5 0 -10 -7 -10 -7 -1 -31 -17 -53
-37 -22 -20 -31 -30 -20 -22 11 7 30 22 43 33 l23 21 -4 -25 c-7 -40 -28 -90
-39 -90 -5 0 -6 -4 -3 -10 3 -5 1 -10 -5 -10 -6 0 -8 -5 -4 -12 4 -6 3 -8 -4
-4 -6 3 -24 -10 -40 -30 -17 -20 -43 -45 -58 -54 l-27 -18 48 1 c39 2 48 -1
51 -16 1 -11 -7 -22 -22 -27 -14 -6 -27 -17 -30 -25 -5 -13 -9 -13 -23 -3 -10
8 -9 4 3 -10 22 -26 29 -52 15 -52 -6 0 -7 -5 -4 -10 4 -6 3 -10 -2 -9 -20 4
-34 -2 -28 -12 4 -6 1 -10 -6 -8 -33 4 -41 -2 -37 -24 4 -22 -12 -48 -29 -47
-4 0 -8 -8 -8 -18 0 -10 -6 -16 -15 -14 -8 2 -12 0 -7 -4 4 -4 0 -16 -10 -26
-9 -10 -13 -18 -9 -18 4 0 19 14 33 30 13 17 30 27 35 23 7 -3 8 -1 4 5 -4 7
-1 12 6 13 7 0 25 2 40 3 19 1 29 -5 35 -19 17 -39 10 -59 -25 -66 -46 -9 -53
-19 -8 -12 24 4 36 2 36 -6 0 -7 4 -10 9 -7 5 4 8 -4 7 -16 -5 -43 -17 -67
-37 -73 -10 -4 -19 -10 -19 -15 0 -5 -25 -35 -56 -66 -30 -31 -62 -67 -71 -80
-19 -30 -30 -30 -36 -1 -4 19 -4 18 -6 -5 0 -16 4 -28 9 -28 11 0 10 -36 -1
-55 -4 -5 -9 -23 -13 -38 -4 -16 -19 -40 -33 -53 -14 -13 -21 -24 -15 -24 7 0
24 17 39 38 20 25 36 37 53 37 32 0 44 -17 23 -32 -11 -9 -13 -13 -4 -13 11 0
11 -3 1 -15 -7 -8 -18 -15 -24 -15 -7 0 -20 -6 -29 -12 -16 -12 -15 -13 7 -13
13 0 22 4 19 10 -2 6 3 1 12 -10 9 -11 24 -41 33 -67 18 -51 22 -53 95 -48 38
2 71 -15 61 -31 -3 -5 2 -9 10 -9 9 0 16 -2 16 -4 0 -2 3 -12 7 -22 5 -14 3
-16 -12 -10 -10 4 -21 2 -25 -5 -4 -6 -24 -13 -45 -16 -26 -3 -35 -2 -31 6 14
22 -5 10 -39 -24 -36 -36 -52 -37 -87 -7 -12 10 -18 11 -18 4 0 -8 -18 -12
-46 -12 -33 0 -51 -5 -60 -17 -12 -16 -13 -15 -14 13 0 17 7 37 15 44 8 7 15
18 15 25 0 7 7 18 15 25 8 7 15 20 15 30 0 12 6 17 18 15 27 -4 35 6 17 25 -9
10 -15 23 -13 31 2 7 -3 14 -9 15 -7 1 -16 2 -19 3 -3 0 4 10 17 22 l24 20
-30 -18 c-16 -9 -33 -21 -36 -26 -9 -13 -15 -13 -32 1 -13 11 -17 10 -26 -5
-7 -12 -10 -13 -11 -4 0 7 -6 11 -14 8 -12 -5 -13 -1 -7 16 5 13 21 25 37 29
19 5 10 6 -23 3 -30 -2 -55 0 -59 6 -3 6 -12 8 -20 5 -7 -3 -16 -1 -19 4 -4 6
-23 10 -44 10 -21 0 -51 4 -67 9 -55 18 -86 22 -79 12 3 -6 -7 -14 -22 -17
-15 -4 -37 -13 -49 -21 -12 -7 -28 -11 -36 -8 -12 5 -14 0 -11 -19 3 -16 1
-26 -6 -26 -7 0 -10 -4 -7 -9 14 -22 -27 -19 -49 3 -14 14 -27 20 -30 15 -4
-5 -2 -9 2 -9 5 0 8 -14 8 -32 0 -28 4 -33 32 -39 36 -7 89 -46 98 -71 3 -10
2 -25 -3 -34 -9 -15 -11 -15 -28 2 -12 12 -30 18 -46 16 -16 -2 -28 1 -28 7 0
6 -8 11 -18 11 -10 0 -22 4 -28 9 -13 13 -76 -10 -114 -43 -17 -14 -44 -28
-58 -31 -15 -3 -40 -10 -56 -15 -16 -5 -33 -7 -39 -3 -6 4 -7 1 -2 -7 5 -8 3
-11 -6 -8 -8 3 -13 15 -12 26 2 19 0 20 -24 11 -30 -11 -59 5 -35 20 8 5 13
12 11 17 -1 5 7 14 17 19 11 6 30 20 42 33 13 13 30 21 38 18 8 -3 14 -2 14 2
0 4 34 6 76 4 l76 -4 -7 42 c-4 26 -2 52 5 71 9 22 10 33 2 41 -14 14 4 52 21
45 14 -5 18 156 5 169 -5 4 -8 15 -8 25 0 10 -4 21 -10 24 -5 3 -7 0 -4 -9 8
-21 -45 -34 -57 -15 -7 11 -9 11 -9 -3 0 -11 -7 -16 -21 -15 -17 1 -20 6 -15
29 5 24 3 26 -8 16 -8 -7 -11 -17 -8 -23 3 -5 -2 -4 -11 4 -9 7 -17 10 -17 5
0 -5 -5 -2 -10 6 -7 12 -12 12 -22 2 -17 -17 -46 -15 -56 6 -5 9 -8 51 -7 92
3 110 4 112 17 104 7 -5 9 -2 6 7 -3 8 0 23 8 34 8 10 14 15 14 10 0 -4 9 0
20 10 21 19 26 50 10 60 -16 10 -40 102 -43 165 -2 31 1 35 25 38 16 2 28 -1
28 -7 0 -5 15 -26 34 -45 24 -26 42 -36 64 -36 l30 0 -14 53 c-7 28 -14 62
-14 74 0 44 31 102 67 124 31 19 43 21 101 14 37 -4 79 -8 95 -8 15 0 27 -4
27 -9 0 -5 6 -8 13 -5 14 5 122 -48 186 -91 l45 -30 40 34 c22 19 45 34 52 34
7 0 19 6 26 13 21 22 58 38 68 32 6 -3 10 -2 10 4 0 6 7 8 15 5 8 -4 15 -1 15
6 0 7 7 10 15 6 8 -3 15 -1 15 5 0 6 7 9 15 5 8 -3 15 -1 15 5 0 6 5 7 10 4 6
-3 16 -3 23 2 6 4 14 8 17 8 17 1 76 31 83 42 5 7 13 10 19 7 6 -4 17 1 25 11
7 11 13 16 13 12 0 -9 31 16 94 75 28 26 54 48 57 48 4 0 10 -12 13 -26z
m-104 -258 c0 -2 -8 -10 -17 -17 -16 -13 -17 -12 -4 4 13 16 21 21 21 13z"/>
<path d="M1524 1544 c-18 -14 -18 -15 4 -4 31 15 62 4 63 -23 1 -18 2 -19 6
-4 10 40 -36 61 -73 31z"/>
<path d="M1614 1478 c13 -10 17 -21 12 -34 -6 -15 -5 -17 6 -6 14 14 2 43 -23
50 -8 2 -5 -2 5 -10z"/>
<path d="M1593 1357 c12 -13 24 -22 26 -20 6 4 -30 43 -40 43 -5 0 2 -10 14
-23z"/>
<path d="M965 1315 c-16 -14 -25 -25 -19 -25 6 0 21 11 34 25 30 32 24 31 -15
0z"/>
<path d="M1070 1310 c-8 -5 -10 -10 -5 -10 6 0 17 5 25 10 8 5 11 10 5 10 -5
0 -17 -5 -25 -10z"/>
<path d="M1585 1310 c-3 -6 1 -7 9 -4 18 7 21 14 7 14 -6 0 -13 -4 -16 -10z"/>
<path d="M1550 1285 c0 -8 2 -15 4 -15 2 0 6 7 10 15 3 8 1 15 -4 15 -6 0 -10
-7 -10 -15z"/>
<path d="M820 1275 c-19 -23 -8 -25 14 -4 11 11 15 19 9 19 -6 0 -16 -7 -23
-15z"/>
<path d="M860 1282 c0 -4 9 -13 20 -19 16 -11 18 -10 14 1 -6 15 -34 30 -34
18z"/>
<path d="M1010 1280 c-8 -5 -10 -10 -5 -10 6 0 17 5 25 10 8 5 11 10 5 10 -5
0 -17 -5 -25 -10z"/>
<path d="M915 1245 c-16 -8 -23 -14 -15 -14 8 0 26 6 40 14 32 18 15 18 -25 0z"/>
<path d="M1089 1243 c-13 -16 -12 -17 4 -4 9 7 17 15 17 17 0 8 -8 3 -21 -13z"/>
<path d="M1420 1246 c0 -2 8 -10 18 -17 15 -13 16 -12 3 4 -13 16 -21 21 -21
13z"/>
<path d="M1540 1232 c0 -5 14 -7 30 -4 17 2 30 6 30 8 0 2 -13 4 -30 4 -16 0
-30 -4 -30 -8z"/>
<path d="M830 1220 c-13 -9 -13 -10 0 -10 8 0 22 5 30 10 13 9 13 10 0 10 -8
0 -22 -5 -30 -10z"/>
<path d="M1468 1213 c7 -3 16 -2 19 1 4 3 -2 6 -13 5 -11 0 -14 -3 -6 -6z"/>
<path d="M1508 1213 c7 -3 16 -2 19 1 4 3 -2 6 -13 5 -11 0 -14 -3 -6 -6z"/>
<path d="M1024 1188 l-19 -23 23 19 c21 18 27 26 19 26 -2 0 -12 -10 -23 -22z"/>
<path d="M728 1193 c6 -2 18 -2 25 0 6 3 1 5 -13 5 -14 0 -19 -2 -12 -5z"/>
<path d="M1430 1177 c0 -7 39 -101 41 -97 0 3 2 21 4 40 3 29 -1 37 -21 47
-13 6 -24 10 -24 10z"/>
<path d="M1520 1160 c-13 -8 -12 -10 3 -10 9 0 17 5 17 10 0 12 -1 12 -20 0z"/>
<path d="M910 1130 c-9 -6 -10 -10 -3 -10 6 0 15 5 18 10 8 12 4 12 -15 0z"/>
<path d="M1614 1108 l-19 -23 23 19 c12 11 22 21 22 23 0 8 -8 2 -26 -19z"/>
<path d="M828 1103 c7 -3 16 -2 19 1 4 3 -2 6 -13 5 -11 0 -14 -3 -6 -6z"/>
<path d="M893 1063 c-13 -8 -23 -21 -23 -27 0 -7 3 -8 8 0 4 5 18 18 32 27 13
9 20 17 15 16 -6 0 -20 -7 -32 -16z"/>
<path d="M1481 1030 c0 -8 4 -22 9 -30 12 -18 12 -2 0 25 -6 13 -9 15 -9 5z"/>
<path d="M845 1010 c-3 -6 1 -7 9 -4 18 7 21 14 7 14 -6 0 -13 -4 -16 -10z"/>
<path d="M1501 964 c0 -11 3 -14 6 -6 3 7 2 16 -1 19 -3 4 -6 -2 -5 -13z"/>
<path d="M1511 924 c0 -11 3 -14 6 -6 3 7 2 16 -1 19 -3 4 -6 -2 -5 -13z"/>
<path d="M821 891 c7 -10 21 -24 33 -31 15 -9 12 -3 -8 19 -34 35 -41 39 -25
12z"/>
<path d="M908 653 c6 -2 18 -2 25 0 6 3 1 5 -13 5 -14 0 -19 -2 -12 -5z"/>
<path d="M830 630 c0 -5 5 -10 11 -10 5 0 7 5 4 10 -3 6 -8 10 -11 10 -2 0 -4
-4 -4 -10z"/>
</g>
</svg>
