<?xml version="1.0" standalone="no"?>
<!DOCTYPE svg PUBLIC "-//W3C//DTD SVG 20010904//EN"
 "http://www.w3.org/TR/2001/REC-SVG-20010904/DTD/svg10.dtd">
<svg version="1.0" xmlns="http://www.w3.org/2000/svg"
 width="227.000000pt" height="170.000000pt" viewBox="0 0 227.000000 170.000000"
 preserveAspectRatio="xMidYMid meet">

<g transform="translate(0.000000,170.000000) scale(0.100000,-0.100000)"
fill="#000000" stroke="none">
<path d="M2 1658 l3 -43 102 -2 101 -1 4 44 3 44 -108 0 -108 0 3 -42z m168
-18 c0 -5 -2 -10 -4 -10 -3 0 -8 5 -11 10 -3 6 -1 10 4 10 6 0 11 -4 11 -10z"/>
<path d="M240 1645 l0 -55 -120 0 -120 0 0 -51 0 -52 37 7 c21 3 70 6 108 6
l70 0 0 37 c0 20 6 38 13 41 9 3 12 -12 12 -53 l0 -57 -120 4 c-110 3 -120 2
-120 -15 0 -16 11 -18 133 -16 114 1 132 -1 135 -15 4 -18 -32 -23 -43 -6 -4
6 -53 10 -116 10 l-109 0 0 -38 c0 -32 5 -41 25 -50 23 -11 25 -17 25 -77 0
-42 4 -64 10 -60 6 4 10 -25 10 -80 0 -55 -4 -84 -10 -80 -5 3 -10 -2 -10 -11
0 -12 -3 -15 -10 -8 -5 5 -11 76 -12 158 -2 113 -6 150 -16 154 -11 3 -12 -10
-8 -64 7 -84 8 -190 2 -265 l-5 -55 42 -3 c43 -4 137 -4 192 -2 17 1 97 0 178
-2 108 -2 150 -6 156 -15 13 -22 0 -115 -20 -144 -23 -33 -24 -39 -4 -32 22 9
45 -14 45 -45 0 -32 14 -56 28 -47 5 3 15 -1 22 -10 21 -25 -18 -69 -61 -69
-29 0 -35 4 -37 25 -2 14 -8 31 -14 37 -6 7 -7 24 -4 37 9 38 -11 41 -29 5 -9
-17 -29 -42 -43 -55 -25 -22 -35 -24 -132 -23 -58 0 -153 0 -212 0 l-108 -1 0
-305 0 -305 1135 0 1135 0 0 305 0 305 -76 0 c-66 0 -79 3 -95 22 -11 11 -18
23 -16 24 2 2 44 4 95 5 51 1 92 5 92 10 0 5 -91 10 -202 11 -196 3 -203 4
-200 23 16 129 17 131 49 93 11 -13 41 -43 69 -68 37 -34 34 -29 -15 22 -41
43 -61 70 -56 79 5 8 4 10 -3 5 -9 -5 -11 7 -10 43 2 33 6 47 12 41 14 -14 26
-12 21 3 -4 9 32 12 165 10 l170 -2 -1 57 c-1 31 -4 68 -9 82 l-7 25 -11 -27
c-21 -51 -30 -29 -30 68 l0 96 29 -6 29 -5 0 59 0 59 -87 4 -88 3 87 2 87 2 0
155 c-1 144 -2 155 -19 155 -10 0 -21 -6 -23 -12 -3 -8 -6 -6 -6 5 -1 12 7 17
24 17 16 0 25 6 25 15 0 12 -17 15 -89 15 l-90 0 6 -55 6 -56 -101 2 c-128 2
-202 16 -97 19 39 1 94 1 123 0 l52 -1 0 46 0 46 -300 -2 c-253 -1 -300 -4
-300 -16 0 -8 8 -13 18 -12 48 4 56 -3 20 -18 l-38 -15 0 -79 c0 -64 -3 -79
-15 -79 -8 0 -15 6 -15 13 0 8 -4 7 -10 -3 -7 -10 -10 21 -10 98 l0 112 -119
0 c-66 0 -122 -4 -125 -9 -7 -10 -61 -9 -72 2 -11 11 -84 8 -84 -3 0 -14 -223
-13 -255 2 -19 8 -31 8 -48 0 -25 -13 -85 -13 -93 0 -3 4 -27 8 -54 8 l-49 0
0 -310 c0 -260 -2 -312 -14 -325 -13 -13 -16 -5 -21 63 -3 42 -5 167 -4 277 0
110 0 220 -1 245 l-1 45 -108 1 -108 1 -2 -53 c-1 -30 0 -54 2 -54 1 0 13 9
26 20 25 22 57 26 80 9 13 -9 13 -10 0 -6 -8 2 -20 -3 -25 -10 -6 -8 -26 -15
-45 -16 l-35 -2 1 -62 c0 -35 -3 -63 -8 -63 -4 0 -8 54 -8 120 0 73 -4 120
-10 120 -5 0 -10 -25 -10 -55z m827 39 c-3 -3 -12 -4 -19 -1 -8 3 -5 6 6 6 11
1 17 -2 13 -5z m-587 -30 c0 -8 -10 -14 -25 -14 -14 0 -25 5 -25 12 0 9 -3 9
-12 0 -15 -15 -45 -16 -54 -1 -11 18 10 24 65 21 35 -3 51 -8 51 -18z m-155 4
c14 2 25 0 25 -5 0 -5 -13 -10 -30 -11 -23 -2 -30 2 -29 15 0 10 3 13 5 7 3
-6 16 -9 29 -6z m474 3 c18 7 28 6 39 -5 12 -12 0 -14 -92 -14 -58 -1 -106 3
-106 8 0 11 99 18 119 9 8 -4 26 -3 40 2z m299 0 c7 -1 11 -5 7 -10 -6 -11
-214 -11 -220 0 -3 3 21 7 52 8 31 0 58 2 59 4 3 3 54 2 102 -2z m560 -38
c-17 -3 -28 -11 -28 -20 0 -9 -3 -14 -6 -10 -15 14 7 37 33 36 l28 -2 -27 -4z
m545 0 c-13 -2 -23 -11 -23 -19 0 -8 -4 -14 -10 -14 -11 0 -14 23 -3 33 3 4
18 6 32 6 24 -2 24 -2 4 -6z m-993 -12 c-8 -6 -112 -10 -235 -10 -270 0 -255
1 -255 -9 0 -4 66 -7 148 -5 139 3 220 -2 209 -13 -8 -9 -340 -15 -387 -8 -42
7 -43 8 -16 13 39 8 46 29 7 23 -16 -2 -31 0 -35 6 -4 6 99 10 287 11 188 1
287 -2 277 -8z m-70 -42 c-36 -8 -60 -2 -41 10 6 4 26 5 44 2 l32 -5 -35 -7z
m-1050 -3 c0 -3 -4 -8 -10 -11 -5 -3 -10 -1 -10 4 0 6 5 11 10 11 6 0 10 -2
10 -4z m100 -6 c0 -5 -5 -10 -11 -10 -5 0 -7 5 -4 10 3 6 8 10 11 10 2 0 4 -4
4 -10z m160 -6 c0 -14 -25 -26 -35 -16 -4 4 -12 7 -17 7 -6 0 -13 6 -16 13 -3
9 6 12 32 10 20 -1 36 -7 36 -14z m95 -5 c-5 -16 -4 -19 5 -14 9 5 11 4 6 -3
-9 -15 -83 -16 -91 -2 -12 19 16 40 52 40 30 0 34 -2 28 -21z m1153 14 c-10
-2 -18 -12 -18 -20 0 -9 -3 -14 -6 -10 -12 11 5 37 23 36 17 -1 17 -2 1 -6z
m501 -38 l2 -45 -97 0 c-54 0 -94 3 -91 7 4 3 42 7 85 7 l77 1 3 38 c4 51 18
47 21 -8z m81 35 c0 -5 -7 -7 -15 -4 -8 4 -15 8 -15 10 0 2 7 4 15 4 8 0 15
-4 15 -10z m-1703 -22 c-3 -8 -6 -5 -6 6 -1 11 2 17 5 13 3 -3 4 -12 1 -19z
m511 4 c6 -1 12 -6 12 -11 0 -4 -74 -9 -165 -10 -98 0 -165 3 -165 9 0 12 244
21 318 12z m207 -1 c69 -6 68 -6 -50 -13 -121 -6 -140 -4 -130 13 7 10 72 10
180 0z m1039 -7 c3 -8 2 -12 -4 -9 -6 3 -10 10 -10 16 0 14 7 11 14 -7z
m-1599 -4 c3 -5 -1 -10 -9 -10 -9 0 -16 5 -16 10 0 6 4 10 9 10 6 0 13 -4 16
-10z m-278 -34 c-5 -17 -47 -20 -47 -3 0 20 9 26 31 20 11 -3 18 -11 16 -17z
m-60 -18 c-3 -7 -5 -2 -5 12 0 14 2 19 5 13 2 -7 2 -19 0 -25z m879 20 c4 -5
-58 -8 -137 -9 -79 -1 -188 -3 -241 -5 -56 -2 -98 0 -98 5 0 6 12 11 28 13 57
6 441 3 448 -4z m1024 5 c-8 -3 -18 -11 -22 -17 -5 -7 -8 -4 -8 7 0 11 7 17
23 16 15 0 17 -2 7 -6z m-1742 -9 c12 -4 22 -11 22 -16 0 -14 -53 -5 -58 10
-4 13 2 15 36 6z m232 -4 c0 -5 -24 -10 -52 -10 -38 0 -49 3 -38 10 20 13 90
13 90 0z m558 3 c-10 -2 -26 -2 -35 0 -10 3 -2 5 17 5 19 0 27 -2 18 -5z m645
-10 c-7 -2 -21 -2 -30 0 -10 3 -4 5 12 5 17 0 24 -2 18 -5z m-848 -23 c3 -5
-2 -10 -12 -11 -152 -6 -393 -5 -393 1 0 13 21 15 216 18 116 1 185 -1 189 -8z
m160 0 c4 -6 -17 -10 -54 -10 -34 0 -61 4 -61 10 0 6 24 10 54 10 30 0 58 -4
61 -10z m-580 -10 c-3 -5 -13 -10 -21 -10 -8 0 -12 5 -9 10 3 6 13 10 21 10 8
0 12 -4 9 -10z m833 3 c-15 -2 -42 -2 -60 0 -18 2 -6 4 27 4 33 0 48 -2 33 -4z
m109 1 c-3 -3 -12 -4 -19 -1 -8 3 -5 6 6 6 11 1 17 -2 13 -5z m47 -13 c-13
-12 -84 -24 -84 -14 0 5 8 10 18 11 34 4 52 8 58 15 4 4 10 5 13 2 2 -3 0 -9
-5 -14z m-1134 1 c0 -4 -5 -13 -11 -19 -13 -13 -42 -6 -33 8 3 5 0 9 -5 9 -6
0 -11 -4 -11 -9 0 -12 -35 -20 -50 -11 -25 15 2 30 56 30 30 0 54 -4 54 -8z
m856 -10 c-10 -2 -22 0 -28 6 -6 6 0 7 19 4 21 -5 23 -7 9 -10z m908 11 c-5
-5 -12 -12 -16 -18 -4 -6 -8 -2 -8 8 0 9 7 17 17 17 9 0 12 -3 7 -7z m-1894
-15 c0 -4 -15 -8 -32 -8 -24 0 -29 3 -19 9 17 11 51 10 51 -1z m1153 -1 c-2
-4 -33 -7 -69 -5 -35 1 -58 5 -52 9 16 10 127 6 121 -4z m580 6 c-24 -2 -62
-2 -85 0 -24 2 -5 4 42 4 47 0 66 -2 43 -4z m-1022 -14 c9 -5 -64 -8 -191 -8
-113 0 -196 4 -185 8 28 11 358 11 376 0z m218 -5 c2 -2 -39 -4 -93 -4 -62 0
-95 4 -91 10 6 9 173 3 184 -6z m-1176 -1 c-18 -2 -48 -2 -66 0 -17 2 -3 4 33
4 36 0 50 -2 33 -4z m114 1 c-3 -3 -12 -4 -19 -1 -8 3 -5 6 6 6 11 1 17 -2 13
-5z m433 -4 c11 -7 7 -10 -17 -10 -17 0 -35 5 -38 10 -8 13 35 13 55 0z m-292
-20 c-7 -11 -18 -18 -25 -16 -6 3 -14 0 -17 -7 -2 -7 -5 0 -5 16 -1 24 3 27
29 27 28 0 29 -2 18 -20z m1096 5 c-4 -8 -8 -15 -10 -15 -2 0 -4 7 -4 15 0 8
4 15 10 15 5 0 7 -7 4 -15z m91 4 c-4 -6 3 -13 14 -16 15 -4 20 -11 16 -23
-13 -40 -14 -61 -3 -58 6 2 12 12 14 22 4 31 14 31 14 -1 0 -27 -4 -31 -37
-37 -21 -3 -54 -5 -73 -5 -34 1 -34 1 10 11 39 9 42 12 27 23 -20 15 -23 45
-3 45 9 0 12 8 8 25 -2 15 0 25 7 25 7 0 9 -5 6 -11z m635 -10 c-7 -11 -14
-18 -17 -15 -8 8 5 36 17 36 7 0 7 -6 0 -21z m-1223 -11 c-3 -10 -44 -14 -153
-15 -155 -2 -196 2 -159 17 11 5 87 9 168 9 115 1 148 -2 144 -11z m133 1 c0
-11 -28 -19 -70 -19 -38 0 -56 10 -43 24 9 9 113 5 113 -5z m155 2 c3 -6 -9
-13 -28 -16 -47 -9 -110 -2 -115 13 -5 15 133 18 143 3z m-645 -11 c0 -5 -4
-10 -10 -10 -5 0 -10 5 -10 10 0 6 5 10 10 10 6 0 10 -4 10 -10z m-316 -28
c-6 -4 -14 -14 -17 -22 -4 -10 -6 -8 -6 8 -1 15 5 22 17 22 10 0 13 -3 6 -8z
m172 -15 c1 -12 1 -13 -3 -2 -2 8 -9 15 -14 15 -6 0 -7 -4 -4 -10 9 -15 -17
-11 -40 6 -19 14 -18 15 20 12 30 -2 40 -8 41 -21z m490 11 c5 -8 -26 -9 -107
-6 -63 3 -123 2 -134 -2 -23 -8 -55 -2 -55 11 0 13 288 10 296 -3z m269 2 c4
-6 -37 -10 -114 -10 -74 0 -121 4 -121 10 0 6 45 10 114 10 66 0 117 -4 121
-10z m448 3 c-7 -2 -19 -2 -25 0 -7 3 -2 5 12 5 14 0 19 -2 13 -5z m299 0
c-51 -2 -132 -2 -180 0 -48 1 -6 3 93 3 99 0 138 -2 87 -3z m-1485 -25 c-3 -8
-6 -5 -6 6 -1 11 2 17 5 13 3 -3 4 -12 1 -19z m163 12 c0 -5 -11 -10 -25 -10
-14 0 -25 5 -25 10 0 6 11 10 25 10 14 0 25 -4 25 -10z m15 -30 c4 -6 -9 -10
-32 -9 -30 0 -34 2 -18 9 27 12 43 12 50 0z m200 0 c3 -5 -1 -10 -10 -10 -9 0
-13 5 -10 10 3 6 8 10 10 10 2 0 7 -4 10 -10z m52 4 c-3 -3 -12 -4 -19 -1 -8
3 -5 6 6 6 11 1 17 -2 13 -5z m288 -4 c-4 -7 -47 -10 -111 -9 -57 1 -101 5
-98 10 3 5 52 9 110 9 71 0 103 -3 99 -10z m-1068 -16 c-3 -3 -12 -4 -19 -1
-8 3 -5 6 6 6 11 1 17 -2 13 -5z m213 -1 c-8 -3 -18 -11 -22 -17 -5 -7 -8 -4
-8 7 0 11 7 17 23 16 15 0 17 -2 7 -6z m428 -5 c17 -17 15 -39 -3 -32 -8 4
-15 1 -15 -5 0 -6 11 -11 25 -11 25 0 35 -15 14 -22 -7 -2 -7 -12 0 -32 l11
-28 123 2 c67 1 145 1 172 0 l50 -2 -40 -9 c-22 -4 -100 -8 -172 -8 -126 -1
-133 -2 -133 -21 0 -18 -19 -30 -21 -12 -1 4 -2 18 -3 32 -5 48 -17 72 -30 61
-14 -12 -36 4 -36 25 0 7 -5 16 -11 19 -7 5 -8 -5 -4 -32 7 -35 6 -36 -7 -19
-14 18 -15 17 -11 -11 6 -38 -14 -54 -22 -18 -3 14 -7 36 -10 50 -3 14 -1 25
4 25 5 0 23 14 39 30 32 32 60 38 80 18z m1379 -10 c-3 -8 -6 -5 -6 6 -1 11 2
17 5 13 3 -3 4 -12 1 -19z m30 0 c-3 -8 -6 -5 -6 6 -1 11 2 17 5 13 3 -3 4
-12 1 -19z m-1067 -4 c0 -2 -21 -4 -47 -3 -32 0 -42 3 -29 8 18 7 76 3 76 -5z
m-440 -4 c0 -5 -17 -10 -37 -9 -34 1 -35 2 -13 9 36 11 50 11 50 0z m305 0
c-3 -5 -38 -10 -76 -10 -44 0 -68 4 -64 10 3 6 38 10 76 10 44 0 68 -4 64 -10z
m618 -6 c-1 -6 -3 -42 -4 -81 -2 -63 -4 -72 -23 -77 -28 -8 -151 -8 -144 0 4
3 34 5 67 5 33 0 60 3 60 7 -1 4 -1 14 0 22 1 13 2 13 11 0 8 -12 10 -10 10
10 0 14 -9 32 -20 40 -23 17 -24 26 -7 63 8 19 18 27 32 24 11 -1 19 -7 18
-13z m546 -116 c-9 -16 -9 -23 0 -26 6 -2 10 -20 10 -40 -1 -20 -3 -29 -6 -20
-3 12 -12 16 -33 13 -18 -2 -30 2 -34 11 -7 19 -36 18 -36 -2 0 -8 -3 -13 -8
-10 -4 2 -29 0 -56 -5 -29 -5 -54 -5 -60 0 -6 5 -20 10 -31 13 -17 3 -19 12
-20 70 l0 67 30 -4 c16 -2 56 3 87 12 33 9 75 13 98 10 27 -3 45 -1 53 8 17
18 22 -66 6 -97z m-1822 88 c56 -1 105 -4 109 -8 4 -5 13 -3 20 3 25 21 34 -2
34 -92 0 -87 -1 -89 -20 -79 -14 8 -20 8 -20 0 0 -12 -66 -8 -77 5 -5 4 -2 5
5 1 6 -4 12 -2 12 3 0 18 -19 12 -30 -10 -7 -12 -18 -18 -26 -15 -8 3 -14 0
-14 -7 0 -7 -6 -4 -14 6 -12 15 -16 16 -27 5 -13 -13 -59 -22 -59 -12 0 3 10
9 23 14 21 8 21 9 -5 9 -15 1 -33 -6 -42 -14 -9 -9 -17 -11 -21 -5 -3 5 0 10
7 10 8 1 5 7 -7 16 -11 8 -30 12 -42 9 -22 -5 -23 -3 -23 75 0 79 0 80 28 86
15 3 32 7 37 9 6 2 19 1 30 -2 11 -4 66 -7 122 -7z m586 -3 c-13 -2 -33 -2
-45 0 -13 2 -3 4 22 4 25 0 35 -2 23 -4z m217 1 c-36 -8 -138 -9 -134 -2 3 4
38 7 77 7 40 -1 65 -3 57 -5z m666 -2 c7 -4 11 -41 12 -92 0 -83 -1 -86 -23
-86 -13 0 -22 3 -19 7 6 11 -55 21 -88 15 -15 -2 -30 -1 -32 3 -4 6 -10 110
-7 141 1 10 4 11 12 3 11 -11 56 -6 65 8 6 11 65 12 80 1z m401 -49 c2 -27 -1
-68 -6 -93 -8 -40 -9 -33 -10 54 -1 101 9 126 16 39z m-1551 1 c1 -29 1 -32
-3 -9 -3 17 -10 36 -16 44 -10 11 -9 13 3 9 10 -3 15 -19 16 -44z m-28 24 c7
-7 12 -23 12 -37 0 -32 13 -53 29 -49 7 2 18 -5 24 -14 23 -34 -53 -85 -88
-60 -16 10 -36 87 -29 106 3 9 1 16 -5 16 -12 0 -3 31 13 42 16 11 30 10 44
-4z m1226 -64 c-3 -90 -14 -95 -14 -6 0 40 3 72 8 72 4 0 6 -30 6 -66z m-749
46 c-110 -12 -285 -11 -285 0 0 6 65 9 178 8 137 -1 161 -3 107 -8z m375 -15
c0 -8 -2 -15 -4 -15 -2 0 -6 7 -10 15 -3 8 -1 15 4 15 6 0 10 -7 10 -15z
m-740 -15 c0 -5 -4 -10 -10 -10 -5 0 -10 5 -10 10 0 6 5 10 10 10 6 0 10 -4
10 -10z m426 -42 c4 -5 -4 -8 -17 -9 -235 -7 -273 -11 -291 -31 -10 -12 -18
-25 -18 -30 0 -18 -28 -6 -38 17 -9 20 -9 25 2 25 7 0 19 6 26 14 6 8 21 16
33 18 41 7 295 3 303 -4z m-431 -47 c-15 -14 -25 -20 -21 -13 4 7 2 12 -6 12
-7 0 0 12 17 27 38 34 48 11 10 -26z m420 9 c13 -5 -22 -9 -97 -9 -68 -1 -119
3 -123 9 -8 12 191 12 220 0z m445 1 c0 -11 -31 -24 -39 -16 -3 3 1 10 9 15
19 12 30 12 30 1z m-110 -5 c0 -11 -19 -15 -25 -6 -3 5 1 10 9 10 9 0 16 -2
16 -4z m-562 -28 c20 -20 14 -32 -7 -14 -15 13 -20 14 -24 4 -2 -7 -8 -9 -13
-5 -5 4 -2 12 6 17 20 13 24 12 38 -2z m-378 -8 c0 -5 -4 -10 -10 -10 -5 0
-10 5 -10 10 0 6 5 10 10 10 6 0 10 -4 10 -10z m435 0 c-3 -5 -10 -10 -16 -10
-5 0 -9 5 -9 10 0 6 7 10 16 10 8 0 12 -4 9 -10z m140 0 c-28 -12 -95 -12 -95
0 0 6 25 10 58 9 41 0 51 -3 37 -9z m660 -61 c4 -13 0 -28 -11 -40 -9 -10 -14
-19 -10 -19 4 0 2 -9 -4 -20 -6 -11 -16 -20 -22 -20 -6 0 -4 8 5 18 10 10 15
21 12 24 -3 3 -1 17 4 32 14 35 5 33 -14 -4 -15 -29 -17 -30 -33 -14 -16 17
-17 16 -23 -12 -4 -16 -7 -44 -8 -63 -1 -27 -4 -32 -18 -27 -17 6 -17 5 0 -8
22 -17 22 -33 -3 -46 -12 -6 -20 -7 -20 -1 0 5 -8 17 -17 26 -16 16 -15 18 8
37 21 17 22 18 2 9 -12 -6 -25 -16 -28 -21 -3 -6 -16 -10 -29 -10 -33 0 -63
-36 -50 -58 16 -25 44 -26 103 -3 42 16 51 17 51 5 0 -21 27 -29 45 -14 22 18
30 5 19 -28 l-9 -27 -178 -3 c-168 -2 -179 -1 -200 18 l-22 21 -14 -20 c-13
-21 -51 -29 -51 -12 0 5 -9 13 -21 16 -11 4 -18 9 -16 12 3 2 14 0 25 -6 16
-8 23 -6 38 12 10 12 12 16 4 10 -20 -18 -27 -16 -34 11 -3 13 -18 29 -34 35
-25 10 -34 9 -66 -10 -29 -17 -34 -24 -25 -35 9 -11 9 -17 0 -28 -10 -12 -6
-13 29 -4 35 9 44 8 58 -6 15 -15 15 -16 -6 -16 -12 0 -22 -4 -22 -10 0 -11
61 -15 200 -11 91 3 96 2 119 -23 l24 -26 -143 0 c-134 0 -145 1 -169 22 -14
13 -20 16 -13 8 18 -20 15 -25 -16 -27 -15 -2 -36 -5 -47 -7 -11 -2 -40 3 -65
10 -28 9 -46 10 -48 4 -5 -14 -67 -13 -95 2 -12 6 -28 14 -36 18 -39 17 -14
25 77 23 77 -2 103 1 118 13 20 16 13 16 -31 -2 -9 -4 -15 -1 -15 8 0 17 -27
20 -34 3 -2 -7 -15 -11 -28 -9 -12 1 -51 3 -85 3 l-63 1 0 53 c0 73 -16 122
-53 165 -18 20 -39 46 -47 57 -12 17 -10 16 11 -3 14 -12 28 -19 32 -16 4 4
68 8 143 9 76 1 129 -2 118 -6 -14 -6 -15 -8 -4 -9 8 -1 20 -3 25 -5 6 -1 23
-3 39 -3 21 -2 27 -6 22 -17 -4 -11 1 -15 17 -15 15 0 18 3 9 9 -10 6 -10 10
3 21 12 10 15 10 15 -4 0 -9 4 -16 10 -16 5 0 7 6 4 14 -9 23 13 28 52 11 47
-20 54 -19 49 4 -3 18 0 19 21 10 34 -12 47 -11 38 3 -5 7 -3 8 7 3 7 -5 25
-9 39 -10 14 -1 31 -5 38 -9 7 -4 12 -3 12 2 0 5 14 8 30 7 17 -1 49 1 73 4
23 4 56 2 73 -4 27 -9 31 -14 29 -40 -3 -24 -2 -26 5 -10 5 11 11 32 14 48 4
15 13 27 21 27 8 0 15 5 15 11 0 6 -9 9 -20 6 -11 -3 -20 -2 -20 2 0 12 24 38
40 43 20 7 67 -27 75 -53z m-1728 9 c-3 -8 -6 -5 -6 6 -1 11 2 17 5 13 3 -3 4
-12 1 -19z m473 -8 c0 -5 -5 -10 -11 -10 -5 0 -7 5 -4 10 3 6 8 10 11 10 2 0
4 -4 4 -10z m40 -4 c0 -3 -4 -8 -10 -11 -5 -3 -10 -1 -10 4 0 6 5 11 10 11 6
0 10 -2 10 -4z m1262 -35 c-4 -12 -7 -11 -13 5 -6 15 -8 13 -9 -11 -1 -16 -5
-39 -10 -50 -15 -37 -24 12 -10 55 11 33 15 37 30 27 10 -6 15 -17 12 -26z
m78 -10 c7 -13 7 -22 0 -26 -6 -3 -7 -17 -4 -30 3 -12 1 -26 -5 -29 -6 -4 -11
-18 -11 -31 0 -48 -51 -56 -92 -15 -25 25 -28 33 -18 45 8 9 21 13 32 9 17 -5
19 -2 14 33 -5 28 -4 33 3 18 9 -18 10 -18 10 6 1 14 4 29 8 32 13 14 53 6 63
-12z m-1152 -93 c17 -17 15 -41 -3 -34 -21 7 -19 -4 4 -28 22 -23 41 -126 24
-126 -9 0 -21 47 -25 98 -2 15 -14 16 -23 2 -8 -14 -35 6 -35 26 0 7 -5 16
-11 19 -7 5 -8 -5 -4 -32 7 -35 6 -36 -7 -19 -14 18 -15 17 -11 -11 6 -38 -14
-54 -22 -18 -3 14 -7 37 -11 51 -4 21 -2 25 10 21 10 -4 16 -1 16 8 0 17 47
55 69 55 10 0 22 -5 29 -12z m992 -6 c14 -11 20 -24 16 -31 -9 -14 -31 0 -47
31 -13 23 2 23 31 0z m-163 -55 c10 4 14 2 10 -4 -6 -10 -57 -15 -57 -6 0 2 6
10 13 17 10 12 13 12 15 1 2 -8 10 -11 19 -8z m-960 -12 c9 -24 -1 -27 -15 -5
-8 13 -8 20 -2 20 6 0 13 -7 17 -15z m83 -66 c0 -6 -4 -7 -10 -4 -5 3 -10 11
-10 16 0 6 5 7 10 4 6 -3 10 -11 10 -16z m627 -13 c-9 -9 -21 -16 -27 -16 -7
0 -5 6 4 16 9 8 16 21 16 27 0 8 3 8 11 0 9 -9 8 -16 -4 -27z m-612 -46 c-15
-30 -44 -38 -52 -15 -3 9 58 56 65 50 2 -2 -4 -17 -13 -35z m165 15 c7 -8 8
-15 2 -15 -5 0 -15 7 -22 15 -7 8 -8 15 -2 15 5 0 15 -7 22 -15z m800 -10
c-20 -21 -33 -25 -80 -25 -48 0 -60 4 -78 25 l-22 25 102 0 101 0 -23 -25z
m413 0 l18 -25 -121 0 -120 0 0 25 0 25 103 0 c97 -1 103 -2 120 -25z m-1268
5 c3 -6 0 -17 -8 -25 -9 -8 -17 -20 -19 -27 -6 -17 -38 -2 -38 18 0 30 51 57
65 34z m-348 -24 c0 -8 -6 -12 -14 -9 -7 3 -10 9 -7 14 8 14 21 11 21 -5z
m456 -7 c-8 -8 -16 -8 -30 0 -16 9 -14 10 12 11 21 0 26 -3 18 -11z m-43 -24
c7 -9 10 -18 6 -22 -3 -3 -6 -1 -6 5 0 6 -11 9 -25 6 -14 -2 -25 0 -25 6 0 6
5 8 10 5 6 -3 10 -1 10 4 0 16 16 13 30 -4z m-355 -5 c3 -5 -1 -10 -10 -10 -9
0 -13 5 -10 10 3 6 8 10 10 10 2 0 7 -4 10 -10z m1458 -235 c-7 -21 -13 -19
-13 6 0 11 4 18 10 14 5 -3 7 -12 3 -20z m-407 -10 c14 -13 13 -15 -6 -15 -13
0 -19 4 -14 12 5 8 0 9 -14 6 -12 -4 -25 -2 -28 3 -9 15 46 10 62 -6z m354
-25 c-8 -5 -19 -10 -25 -10 -5 0 -3 5 5 10 8 5 20 10 25 10 6 0 3 -5 -5 -10z
m-55 -10 c-3 -5 -11 -10 -16 -10 -6 0 -7 5 -4 10 3 6 11 10 16 10 6 0 7 -4 4
-10z m-495 -90 c11 -7 7 -10 -17 -10 -18 0 -33 5 -33 10 0 13 30 13 50 0z
m-920 -16 c0 -8 -5 -12 -10 -9 -6 4 -8 11 -5 16 9 14 15 11 15 -7z m550 -14
c-36 -11 -50 -11 -50 0 0 6 17 10 38 9 33 -1 34 -2 12 -9z m-311 -24 c10 -12
8 -13 -8 -9 -12 3 -21 9 -21 14 0 14 16 11 29 -5z m-175 -5 c3 -4 -6 -6 -19
-3 -14 2 -25 6 -25 8 0 8 39 4 44 -5z m41 -1 c3 -5 1 -10 -4 -10 -6 0 -11 5
-11 10 0 6 2 10 4 10 3 0 8 -4 11 -10z m239 -6 c31 -12 15 -19 -31 -15 -44 4
-46 5 -18 12 17 3 31 7 32 8 1 0 8 -2 17 -5z"/>
<path d="M2000 1195 c0 -8 2 -15 4 -15 2 0 6 7 10 15 3 8 1 15 -4 15 -6 0 -10
-7 -10 -15z"/>
<path d="M1929 1100 c-20 -13 -5 -22 21 -12 18 7 20 10 8 14 -8 4 -21 2 -29
-2z"/>
<path d="M171 1079 c-1 -9 6 -19 14 -23 9 -3 15 0 15 10 0 8 -4 13 -9 10 -5
-4 -12 0 -14 6 -4 8 -6 7 -6 -3z"/>
<path d="M1655 1090 c-3 -6 1 -7 9 -4 18 7 21 14 7 14 -6 0 -13 -4 -16 -10z"/>
<path d="M1195 900 c-24 -27 -7 -70 28 -70 31 0 31 27 -1 35 -23 6 -23 7 -8
30 20 30 6 33 -19 5z"/>
<path d="M1240 890 c19 -13 30 -13 30 0 0 6 -10 10 -22 10 -19 0 -20 -2 -8
-10z"/>
<path d="M1142 853 c-8 -15 -9 -24 -1 -28 15 -10 21 0 17 27 l-3 23 -13 -22z"/>
<path d="M1470 830 c-22 -7 -20 -8 13 -7 20 1 37 5 37 9 0 10 -16 9 -50 -2z"/>
<path d="M1373 809 c20 -11 37 -24 37 -29 0 -17 -18 -20 -33 -5 -12 11 -17 12
-20 2 -3 -9 -9 -9 -26 1 -19 11 -21 10 -21 -11 0 -13 10 -33 23 -45 21 -19 23
-20 42 -4 11 9 28 29 37 44 17 26 17 27 -9 47 -14 12 -35 21 -47 21 -16 -1
-12 -5 17 -21z"/>
<path d="M1078 767 c-3 -19 -2 -25 4 -19 6 6 8 18 6 28 -3 14 -5 12 -10 -9z"/>
<path d="M970 765 c0 -3 7 -19 15 -35 14 -27 17 -28 45 -19 16 6 30 16 30 21
0 6 -6 5 -15 -2 -11 -9 -18 -10 -28 -1 -8 6 -17 8 -20 4 -4 -3 -7 1 -7 10 0 9
-4 19 -10 22 -5 3 -10 3 -10 0z"/>
<path d="M1130 670 c0 -6 7 -10 15 -10 8 0 15 2 15 4 0 2 -7 6 -15 10 -8 3
-15 1 -15 -4z"/>
<path d="M443 848 c-13 -6 -23 -18 -23 -27 0 -10 3 -12 8 -5 4 6 15 13 25 17
9 3 17 11 17 17 0 12 1 12 -27 -2z"/>
<path d="M1985 830 c-3 -6 1 -7 9 -4 18 7 21 14 7 14 -6 0 -13 -4 -16 -10z"/>
<path d="M2228 833 c6 -2 18 -2 25 0 6 3 1 5 -13 5 -14 0 -19 -2 -12 -5z"/>
<path d="M119 670 c17 -10 114 -12 129 -2 7 5 -20 9 -64 9 -42 0 -71 -3 -65
-7z"/>
<path d="M338 673 c7 -3 16 -2 19 1 4 3 -2 6 -13 5 -11 0 -14 -3 -6 -6z"/>
<path d="M440 675 c0 -7 30 -13 34 -7 3 4 -4 9 -15 9 -10 1 -19 0 -19 -2z"/>
<path d="M185 640 c3 -5 8 -10 11 -10 2 0 4 5 4 10 0 6 -5 10 -11 10 -5 0 -7
-4 -4 -10z"/>
</g>
</svg>
